<?xml version="1.0" standalone="no"?>
<!DOCTYPE svg PUBLIC "-//W3C//DTD SVG 1.1//EN" "http://www.w3.org/Graphics/SVG/1.1/DTD/svg11.dtd" >
<svg>
<metadata>
Created by FontForge 20090914 at Mon Mar  7 19:04:42 2016
 By www-data
(c) Copyright 2005, Arphic Technology Co., Ltd.Copyright \(c\) 1997 enStep Incorporated. All Rights Reserved.
</metadata>
<defs>
<font id="ARBONNIE" horiz-adv-x="455" >
  <font-face 
    font-family="AR BONNIE"
    font-weight="5"
    font-stretch="normal"
    units-per-em="1000"
    panose-1="2 0 0 0 0 0 0 0 0 0"
    ascent="800"
    descent="-200"
    x-height="667"
    cap-height="667"
    bbox="-28 -166 942.999 831.997"
    underline-thickness="20"
    underline-position="-120"
    unicode-range="U+0020-U+2122"
  />
<missing-glyph horiz-adv-x="215" 
 />
    <glyph glyph-name=".notdef" horiz-adv-x="215" 
 />
    <glyph glyph-name="space" unicode=" " horiz-adv-x="215" 
 />
    <glyph glyph-name="space" unicode="&#xa0;" horiz-adv-x="215" 
 />
    <glyph glyph-name="exclam" unicode="!" horiz-adv-x="203" 
d="M137 25c0 -9.33301 -3.33301 -17.333 -10 -24s-15 -10 -25 -10s-18.333 3 -25 9s-10 14 -10 24c0 24.667 12 37 36 37c10 0 18.167 -3.5 24.5 -10.5s9.5 -15.5 9.5 -25.5zM80 120l-9 547h63l-11 -547h-43z" />
    <glyph glyph-name="quotedbl" unicode="&#x22;" horiz-adv-x="225" 
d="M39 400l-6 267h56l-6 -267h-44zM141 400l-5 267h55l-5 -267h-45z" />
    <glyph glyph-name="numbersign" unicode="#" 
d="M401 228h-85l-36 -228h-46l36 228h-111l-36 -228h-46l36 228h-85l7 42h85l20 127h-85l7 42h85l36 228h46l-37 -228h111l36 228h46l-36 -228h84l-7 -42h-84l-20 -127h86zM186 397l-20 -127h110l21 127h-111z" />
    <glyph glyph-name="dollar" unicode="$" 
d="M206 68l-67.999 0.00195312v49h23c32.667 0 56.667 3 72 9c24 9.33301 36 27.666 36 54.999c0 35.333 -20.5 87.666 -61.5 156.999s-61.5 122 -61.5 158c0 20.667 5.16699 38.667 15.5 54s25.166 28.333 44.499 39v78h48v-66h48v-50h-27
c-24.667 0 -42.334 -2.33301 -53.001 -7c-18 -8 -27 -22.333 -27 -43c0 -34 20.333 -87 61 -159s61 -125.667 61 -161c0 -21.333 -5.66699 -40.833 -17 -58.5s-26.666 -32.167 -45.999 -43.5v-79h-48v68z" />
    <glyph glyph-name="percent" unicode="%" horiz-adv-x="802" 
d="M379 490c0 -50.667 -17.667 -93.667 -53 -129s-78.333 -53 -129 -53c-50 0 -93.167 17.5 -129.5 52.5s-54.5 77.5 -54.5 127.5c0 52.667 18 96.667 54 132s80.333 53 133 53c50 0 92.333 -18 127 -54s52 -79 52 -129zM62 490c0 -37.333 13 -68.999 39 -94.999
s57.667 -39 95 -39s69.166 12.833 95.499 38.5s39.5 57.167 39.5 94.5c0 39.333 -13.167 71.833 -39.5 97.5s-59.166 38.5 -98.499 38.5c-36.667 0 -67.667 -13.333 -93 -40s-38 -58.334 -38 -95.001zM195 0.000976562l358 667h53l-359 -667h-52zM789 175.001
c0 -50 -17.832 -92.833 -53.499 -128.5s-78.834 -53.5 -129.501 -53.5c-50 0 -93 17.333 -129 52s-54 77.334 -54 128.001c0 53.333 18 97.666 54 132.999s80.333 53 133 53c49.333 0 91.5 -18.167 126.5 -54.5s52.5 -79.5 52.5 -129.5zM472.001 176.001
c0 -37.333 13 -69.001 39 -95.001s57.667 -39 95 -39c36.667 0 68.167 12.833 94.5 38.5s39.5 56.834 39.5 93.501c0 38.667 -13 71 -39 97s-58.667 39 -98 39c-36.667 0 -67.667 -13.333 -93 -40s-38 -58 -38 -94z" />
    <glyph glyph-name="ampersand" unicode="&#x26;" horiz-adv-x="416" 
d="M271 0c-72.667 0 -134.334 23.666 -185.001 70.999s-76 107.333 -76 180c0 56.667 15.833 105.834 47.5 147.501s74.834 71.5 129.501 89.5c-21.333 19.333 -32 43.333 -32 72c0 33.333 11 59.5 33 78.5s49.667 28.5 83 28.5v-48c-20.667 0 -37 -4.83301 -49 -14.5
s-18 -24.5 -18 -44.5c0 -25.333 9.33301 -42.333 28 -51c12.667 -6 32.667 -9 60 -9v92h48v-92h49v-48h-49v-452h-69zM292 451.999l-24.001 1.00098c-58 0 -107.333 -19.333 -148 -58s-61 -86.667 -61 -144c0 -64.667 23 -115.334 69 -152.001
c42.667 -34 97.334 -51 164.001 -51v404z" />
    <glyph glyph-name="quotesingle" unicode="'" horiz-adv-x="123" 
d="M39 400l-6 267h56l-6 -267h-44z" />
    <glyph glyph-name="parenleft" unicode="(" horiz-adv-x="237" 
d="M218 722c-42 -59.333 -74 -121.998 -96 -187.998s-33 -135 -33 -207c0 -70.667 11 -139.334 33 -206.001s54 -129.667 96 -189l-36 -32c-46 63.333 -81.167 131.166 -105.5 203.499s-36.5 146.833 -36.5 223.5s11.833 151 35.5 223s58.5 139.667 104.5 203z" />
    <glyph glyph-name="parenright" unicode=")" horiz-adv-x="237" 
d="M20 -68c41.333 58.667 72.999 121.169 94.999 187.502s33 135.166 33 206.499c0 143.333 -42.667 275 -128 395l36 32c46.667 -66 81.834 -133.667 105.501 -203s35.5 -144 35.5 -224c0 -78 -11.5 -152.333 -34.5 -223s-57.833 -138.334 -104.5 -203.001z" />
    <glyph glyph-name="asterisk" unicode="*" horiz-adv-x="347" 
d="M206 522l66 -94l-32 -24l-67 97l-72 -97l-32 24l71 95l-111 42l14 39l111 -41v116h40v-116l109 41l15 -39z" />
    <glyph glyph-name="plus" unicode="+" horiz-adv-x="456" 
d="M204 356v152h48v-152h153v-45h-153v-154h-48v154h-153v45h153z" />
    <glyph glyph-name="comma" unicode="," horiz-adv-x="191" 
d="M57 -46l29.001 49c-16 6 -24 17.333 -24 34c0 11.333 3.16699 20.166 9.5 26.499s15.166 9.5 26.499 9.5c9.33301 0 17.333 -3 24 -9s10 -13.667 10 -23c0 -11.333 -7.66699 -29.666 -23 -54.999l-30 -45z" />
    <glyph glyph-name="hyphen" unicode="-" horiz-adv-x="166" 
d="M0 294v40h166v-40h-166z" />
    <glyph glyph-name="period" unicode="." horiz-adv-x="191" 
d="M131 26c0 -10 -3.33301 -18.333 -10 -25s-15 -10 -25 -10s-18.5 3.5 -25.5 10.5s-10.5 15.5 -10.5 25.5s3.66699 18.333 11 25s16 10 26 10c22.667 0 34 -12 34 -36z" />
    <glyph glyph-name="slash" unicode="/" horiz-adv-x="217" 
d="M35 -73h-48l189 800h50z" />
    <glyph glyph-name="zero" unicode="0" 
d="M47 436c0 64.667 13.666 117.667 40.999 159c32 48 79 72 141 72c65.333 0 113 -26.333 143 -79c24 -42 36 -98.333 36 -169v-199c0 -64 -13.333 -116.333 -40 -157c-31.333 -48 -77.666 -72 -138.999 -72s-108 24 -140 72c-28 42 -42 95 -42 159v214zM95.999 224
c0 -53.333 8.33301 -95 25 -125c22 -39.333 57.667 -59 107 -59c48.667 0 84 19.667 106 59c17.333 31.333 26 73 26 125v210c0 53.333 -8.33301 95 -25 125c-22 39.333 -57.667 59 -107 59c-48.667 0 -84 -19.667 -106 -59c-17.333 -31.333 -26 -73 -26 -125v-210z" />
    <glyph glyph-name="one" unicode="1" 
d="M223 0v605l-113 -46v51l162 63v-673h-49z" />
    <glyph glyph-name="two" unicode="2" 
d="M55 0l274 419.001c8 12.667 14.167 25.334 18.5 38.001s6.5 26 6.5 40c0 35.333 -13 65.666 -39 90.999s-56.333 38 -91 38c-36.667 0 -68.167 -12.833 -94.5 -38.5s-39.5 -56.5 -39.5 -92.5c0 -41.333 14.667 -73.333 44 -96c26.667 -20.667 60 -31 100 -31
c12.667 0 25 1 37 3l-35 -53l-21 -1c-48 0 -89 18 -123 54s-51 78 -51 126c0 49.333 17.667 91.333 53 126s78 52 128 52c50.667 0 93.5 -16.833 128.5 -50.5s52.5 -75.834 52.5 -126.501c0 -32.667 -19.667 -84 -59 -154c-25.333 -44.667 -64.333 -104.667 -117 -180
l-81 -115h267v-49h-358z" />
    <glyph glyph-name="three" unicode="3" 
d="M53 62c14.667 -6 30.332 -11.167 46.999 -15.5s32 -6.5 46 -6.5c58 0 107.5 20.167 148.5 60.5s61.5 89.5 61.5 147.5c0 60.667 -20.667 110.334 -62 149.001s-92 58 -152 58c-5.33301 0 -10.833 -0.333008 -16.5 -1s-10.167 -1 -13.5 -1l113 165h-139v49h233l-116 -169
c60.667 -16.667 109.5 -47 146.5 -91s55.5 -96.667 55.5 -158c0 -70.667 -25 -131.334 -75 -182.001s-110.667 -76 -182 -76c-18 0 -35.667 2 -53 6s-36.666 10 -57.999 18z" />
    <glyph glyph-name="four" unicode="4" 
d="M270 0v164h-259l308 510v-462h82v-48h-82v-164h-49zM270 505l-178 -293h178v293z" />
    <glyph glyph-name="five" unicode="5" 
d="M67 55c12.667 -4.66699 24.667 -8.33398 36 -11.001s23.333 -4 36 -4c56 0 104.333 20.333 145 61s61 89 61 145c0 60.667 -20.5 110.5 -61.5 149.5s-90.833 58.5 -149.5 58.5c-16.667 0 -33.667 -2 -51 -6l28 219h201v-49h-157l-14 -114
c71.333 0 131.333 -24.333 180 -73s73 -109.667 73 -183c0 -70 -25 -130.333 -75 -181s-110 -76 -180 -76c-14 0 -27.667 1.33301 -41 4s-29.333 7.33398 -48 14.001z" />
    <glyph glyph-name="six" unicode="6" 
d="M295 655l-141.001 -308c24.667 10.667 48.667 16 72 16c51.333 0 95.5 -18.167 132.5 -54.5s55.5 -79.833 55.5 -130.5c0 -51.333 -18 -95.333 -54 -132s-80 -55 -132 -55c-51.333 0 -95.333 18 -132 54s-55 80 -55 132c0 28.667 15.333 80 46 154
c24.667 59.333 55.334 126 92.001 200l72 144zM88.999 177c0 -38.667 13.502 -71.166 40.502 -97.499s59.833 -39.5 98.5 -39.5c37.333 0 69.666 13.333 96.999 40s41 58.667 41 96c0 39.333 -13.833 72.166 -41.5 98.499s-61.167 39.5 -100.5 39.5
c-36.667 0 -68.334 -13.667 -95.001 -41s-40 -59.333 -40 -96z" />
    <glyph glyph-name="seven" unicode="7" 
d="M157 -11l-45 17l221 609h-248v52h319z" />
    <glyph glyph-name="eight" unicode="8" 
d="M61 510c0 44.667 16.3311 83.332 48.998 115.999s71.667 49 117 49c44 0 82.5 -16.167 115.5 -48.5s49.5 -70.5 49.5 -114.5c0 -28.667 -7.16699 -55.167 -21.5 -79.5s-34.166 -44.166 -59.499 -59.499c35.333 -16 64.333 -40.667 87 -74s34 -69.666 34 -108.999
c0 -55.333 -20 -102.333 -60 -141s-87.667 -58 -143 -58s-103.5 19.833 -144.5 59.5s-61.5 86.834 -61.5 141.501c0 39.333 10.667 74.666 32 105.999s50.333 56 87 74c-25.333 14 -45.166 33.167 -59.499 57.5s-21.5 51.166 -21.5 80.499zM71.998 193.998
c0 -42 15.501 -78.167 46.501 -108.5s67.5 -45.5 109.5 -45.5c42.667 0 79.167 14.5 109.5 43.5s45.5 64.5 45.5 106.5c0 44 -15.333 81.333 -46 112s-68.334 46 -113.001 46c-41.333 0 -77 -15.333 -107 -46s-45 -66.667 -45 -108zM108.999 506.998
c0 -32 11.5 -59.167 34.5 -81.5s50.167 -33.5 81.5 -33.5c32 0 59.667 11.333 83 34s35 50 35 82c0 33.333 -11.333 61.333 -34 84s-50.667 34 -84 34c-32 0 -59.333 -12 -82 -36s-34 -51.667 -34 -83z" />
    <glyph glyph-name="nine" unicode="9" 
d="M159 12l141.002 307c-24.667 -10 -48.334 -15 -71.001 -15c-52 0 -96.333 18 -133 54s-55 79.667 -55 131c0 52 18 96 54 132s80.333 54 133 54c52 0 96 -17.667 132 -53s54 -79.333 54 -132c0 -30 -15.333 -81.667 -46 -155c-20.667 -50 -52 -117 -94 -201
c-46.667 -93.333 -70.334 -141 -71.001 -143zM89.002 489c0 -37.333 13.666 -69.332 40.999 -95.999s59.666 -40 96.999 -40c38 0 70.5 13.167 97.5 39.5s40.5 58.166 40.5 95.499c0 40 -13.667 73 -41 99s-60.666 39 -99.999 39c-37.333 0 -69.166 -13.5 -95.499 -40.5
s-39.5 -59.167 -39.5 -96.5z" />
    <glyph glyph-name="colon" unicode=":" horiz-adv-x="191" 
d="M131 26c0 -10 -3.33301 -18.333 -10 -25s-15 -10 -25 -10s-18.5 3.5 -25.5 10.5s-10.5 15.5 -10.5 25.5s3.66699 18.333 11 25s16 10 26 10c22.667 0 34 -12 34 -36zM131 365c0 -10 -3.33301 -18.333 -10 -25s-15 -10 -25 -10s-18.5 3.5 -25.5 10.5
s-10.5 15.5 -10.5 25.5s3.66699 18.333 11 25s16 10 26 10c22.667 0 34 -12 34 -36z" />
    <glyph glyph-name="semicolon" unicode=";" horiz-adv-x="191" 
d="M55 -46l29 49c-16 6.66699 -24 18 -24 34c0 11.333 3.16699 20.166 9.5 26.499s15.166 9.5 26.499 9.5c9.33301 0 17.333 -3 24 -9s10 -13.667 10 -23c0 -12 -7.33301 -30 -22 -54c-17.333 -25.333 -27.666 -40.666 -30.999 -45.999zM131 364
c0 -10 -3.33301 -18.333 -10 -25s-15 -10 -25 -10s-18.5 3.5 -25.5 10.5s-10.5 15.5 -10.5 25.5c0 23.333 12.667 35 38 35c22 0 33 -12 33 -36z" />
    <glyph glyph-name="less" unicode="&#x3c;" horiz-adv-x="500" 
d="M461 355l-375 -154l375 -154v-46l-428 180v41l428 179v-46z" />
    <glyph glyph-name="equal" unicode="=" horiz-adv-x="456" 
d="M401 296v-49h-346v49h346zM401 158v-49h-346v49h346z" />
    <glyph glyph-name="greater" unicode="&#x3e;" horiz-adv-x="500" 
d="M34 46l379 154l-379 154v46l433 -180v-40l-433 -180v46z" />
    <glyph glyph-name="question" unicode="?" horiz-adv-x="351" 
d="M108 26c0 -23.333 -11.333 -35 -34 -35c-10 0 -18.333 3 -25 9s-10 14 -10 24c0 10.667 3.5 19.5 10.5 26.5s15.833 10.5 26.5 10.5c9.33301 0 17 -3.33301 23 -10s9 -15 9 -25zM47 169c61.333 7.33301 111.333 31.1689 150 71.502s58 91.166 58 152.499
c0 60.667 -19.333 111.167 -58 151.5s-88.667 65.5 -150 75.5v47c76 -10 137.833 -39.333 185.5 -88s71.5 -110.667 71.5 -186c0 -74.667 -24 -136.834 -72 -186.501s-109.667 -78.167 -185 -85.5v48z" />
    <glyph glyph-name="at" unicode="@" horiz-adv-x="725" 
d="M437 224c63.333 0 111.666 13.999 144.999 41.999c36.667 30.667 55 77 55 139c0 70 -24.667 126 -74 168c-46.667 39.333 -105.667 59 -177 59c-86.667 0 -160 -28.667 -220 -86s-90 -129 -90 -215c0 -89.333 30.667 -161.666 92 -216.999
c58.667 -52.667 133.334 -79 224.001 -79c72.667 0 141.667 15 207 45l19 -48c-34.667 -16 -70.667 -27.667 -108 -35s-76 -11 -116 -11c-104 0 -190.667 31.333 -260 94c-71.333 64.667 -107 148.667 -107 252c0 99.333 35 182.333 105 249s154.667 100 254 100
c84 0 155 -25.167 213 -75.5s87 -117.166 87 -200.499c0 -84.667 -28.667 -145.334 -86 -182.001c-47.333 -30.667 -115.333 -46 -204 -46c-53.333 0 -93.333 8.33301 -120 25c-33.333 20.667 -50 56.667 -50 108c0 68 27 118 81 150c44.667 26.667 102.667 40 174 40z
M275 310.999c0 -27.333 7.99902 -48.667 23.999 -64s37.333 -23 64 -23h23l36 227c-41.333 0 -76.166 -12.833 -104.499 -38.5s-42.5 -59.5 -42.5 -101.5z" />
    <glyph glyph-name="A" unicode="A" horiz-adv-x="308" 
d="M211 0v454.998h-112v-455h-49v455h-26l-16 48h42c0 56.667 4 95.334 12 116.001c14.667 38 45.667 57 93 57c38 0 65.667 -12.667 83 -38c14.667 -21.333 22 -51.666 22 -90.999v-547h-49zM211 563.998c0 18.667 -4.33301 33.833 -13 45.5s-22 17.5 -40 17.5
c-18.667 0 -33.167 -5.83301 -43.5 -17.5s-15.5 -27.167 -15.5 -46.5v-60h112v61z" />
    <glyph glyph-name="B" unicode="B" horiz-adv-x="359" 
d="M47 667l43.999 0.000976562c32.667 0 59.834 -9.5 81.501 -28.5s32.5 -44.833 32.5 -77.5c0 -26.667 -11.333 -51.334 -34 -74.001c53.333 -15.333 95.833 -44.5 127.5 -87.5s47.5 -92.833 47.5 -149.5c0 -69.333 -24.333 -128.333 -73 -177s-107.667 -73 -177 -73h-49
v667zM296.999 250.001c0 60.667 -19 109.667 -57 147s-86 56 -144 56v-403c56 0 103.5 19.167 142.5 57.5s58.5 85.833 58.5 142.5zM155.999 561.001c0 18 -5.66699 32.666 -17 43.999s-25.666 17 -42.999 17v-121c17.333 0 31.666 5.33301 42.999 16s17 25.334 17 44.001z
" />
    <glyph glyph-name="C" unicode="C" horiz-adv-x="358" 
d="M20 333c0 95.333 31.833 174.834 95.5 238.501s142.5 95.5 236.5 95.5v-48c-78.667 0 -145.667 -27.333 -201 -82s-83 -122.667 -83 -204c0 -80.667 27.333 -148.334 82 -203.001s122 -82 202 -82v-48c-92 0 -170.333 32 -235 96s-97 143 -97 237z" />
    <glyph glyph-name="D" unicode="D" horiz-adv-x="447" 
d="M48 667l44 -0.000976562c94 0 173.333 -31.667 238 -95s97 -142 97 -236c0 -93.333 -33 -172.666 -99 -237.999s-146 -98 -240 -98h-40v667zM378 336.999c0 78 -27.5 144.833 -82.5 200.5s-121.167 83.5 -198.5 83.5v-571c79.333 0 146 27.667 200 83s81 123.333 81 204z
" />
    <glyph glyph-name="E" unicode="E" horiz-adv-x="252" 
d="M52 0v454h-25l-18 48h43v165h171v-49h-122v-116h116l18 -48h-134v-405h122v-49h-171z" />
    <glyph glyph-name="F" unicode="F" horiz-adv-x="244" 
d="M52 0v454h-26l-17 48h43v165h167v-49h-118v-116h112l17 -48h-129v-454h-49z" />
    <glyph glyph-name="G" unicode="G" horiz-adv-x="389" 
d="M19 335c0 94 31.832 172.835 95.499 236.502s142.167 95.5 235.5 95.5v-48c-79.333 0 -146.166 -26.833 -200.499 -80.5s-81.5 -121.834 -81.5 -204.501c0 -70 21.333 -130 64 -180s99 -82.667 169 -98v444h49v-500c-96 10 -174 43.333 -234 100
c-64.667 61.333 -97 139.666 -97 234.999z" />
    <glyph glyph-name="H" unicode="H" horiz-adv-x="320" 
d="M223 0v453h-122v-453h-49v453h-24l-18 48h42v166h49v-166h122v166h49v-667h-49z" />
    <glyph glyph-name="I" unicode="I" horiz-adv-x="144" 
d="M47 0v667h49v-667h-49z" />
    <glyph glyph-name="J" unicode="J" horiz-adv-x="192" 
d="M0 48c40.667 12 68.333 32 83 60c12 22.667 18 57 18 103v407h-98v49h146v-470c0 -54 -11.833 -97.833 -35.5 -131.5s-61.5 -55.5 -113.5 -65.5v48z" />
    <glyph glyph-name="K" unicode="K" horiz-adv-x="317" 
d="M47 667h49v-154l129 154h64l-142 -166l170 -501h-53l-168 501v-501h-49v667z" />
    <glyph glyph-name="L" unicode="L" horiz-adv-x="218" 
d="M47 0v667h49v-618h125v-49h-174z" />
    <glyph glyph-name="M" unicode="M" horiz-adv-x="435" 
d="M378 0l-82 514l-78 -186l-80 189l-80 -517h-51l110 678l101 -231l99 231l111 -678h-50z" />
    <glyph glyph-name="N" unicode="N" horiz-adv-x="332" 
d="M237 0v508l-141 84v-592h-49v678l190 -114v103h49v-667h-49z" />
    <glyph glyph-name="O" unicode="O" horiz-adv-x="723" 
d="M704 332c0 -94 -33.332 -174.333 -99.999 -241s-147.334 -100 -242.001 -100c-94 0 -174.5 32.833 -241.5 98.5s-100.5 145.5 -100.5 239.5c0 97.333 33.667 179.333 101 246s150 100 248 100c93.333 0 172.5 -33.667 237.5 -101s97.5 -148 97.5 -242zM68.001 333
c0 -82 28.332 -151.333 84.999 -208s126 -85 208 -85c80.667 0 149.834 28.167 207.501 84.5s86.5 124.5 86.5 204.5c0 86 -28.667 157 -86 213s-129 84 -215 84c-79.333 0 -146.833 -28.833 -202.5 -86.5s-83.5 -126.5 -83.5 -206.5z" />
    <glyph glyph-name="P" unicode="P" horiz-adv-x="375" 
d="M47 667h44.001c73.333 0 135.666 -26.333 186.999 -79s77 -116 77 -190c0 -74.667 -24.333 -136.667 -73 -186s-110.667 -78 -186 -86v-126h-49v667zM307.001 398c0 61.333 -19.667 112.001 -59 152.001s-90 63.333 -152 70v-444c59.333 0 109.333 21.667 150 65
s61 95.666 61 156.999z" />
    <glyph glyph-name="Q" unicode="Q" horiz-adv-x="721" 
d="M548 49c-56.667 -38.667 -119.999 -57.998 -189.999 -57.998c-93.333 0 -173 33.667 -239 101s-99 147.666 -99 240.999c0 95.333 32.833 176.166 98.5 242.499s146.167 99.5 241.5 99.5c96 0 177 -33.333 243 -100s99 -147.667 99 -243
c0 -51.333 -9.33301 -96.833 -28 -136.5s-47.334 -78.167 -86.001 -115.5l90 -78l-32 -37zM425.001 219.002l126 -108c32 27.333 57 60.5 75 99.5s27 79.833 27 122.5c0 80.667 -28.333 149.667 -85 207s-125.667 86 -207 86s-150.5 -28.167 -207.5 -84.5
s-85.5 -125.833 -85.5 -208.5c0 -80 28.167 -148.833 84.5 -206.5s124.833 -86.5 205.5 -86.5c27.333 0 54 3.5 80 10.5s49.667 17.5 71 31.5l-115 99z" />
    <glyph glyph-name="R" unicode="R" horiz-adv-x="377" 
d="M268 0l-172.001 143.998v-144h-49v667h36c74.667 0 138.334 -25.667 191.001 -77s79 -114 79 -188c0 -59.333 -16.667 -111.166 -50 -155.499s-78.333 -77.166 -135 -98.499l178 -148h-78zM303.999 398.998c0 60.667 -19.5 111.167 -58.5 151.5s-88.833 63.5 -149.5 69.5
v-437c60 6.66699 109 29 147 67c40.667 40 61 89.667 61 149z" />
    <glyph glyph-name="S" unicode="S" horiz-adv-x="236" 
d="M7 49l28.999 0.00195312c44 0 76.667 5 98 15c31.333 14.667 47 42.667 47 84c0 34 -12.833 75 -38.5 123l-75.5 139c-27.333 53.333 -41 97 -41 131c0 41.333 13.333 72.666 40 93.999s61.334 32 104.001 32h36v-48c-42 0 -70.667 -2.66699 -86 -8
c-30 -10.667 -45 -33.334 -45 -68.001c0 -34 13.333 -76.333 40 -127l75.5 -138c25.667 -48 38.5 -91 38.5 -129c0 -48 -15.833 -84.833 -47.5 -110.5s-72.167 -38.5 -121.5 -38.5h-53v49z" />
    <glyph glyph-name="T" unicode="T" horiz-adv-x="219" 
d="M86 0v618h-79v49h205v-49h-77v-618h-49z" />
    <glyph glyph-name="U" unicode="U" horiz-adv-x="323" 
d="M275 120c0 -37.333 -9.5 -68.166 -28.5 -92.499s-46.833 -36.5 -83.5 -36.5c-37.333 0 -66 12.167 -86 36.5s-30 55.833 -30 94.5v545h49v-543c0 -24.667 4.83301 -44.834 14.5 -60.501s26.5 -23.5 50.5 -23.5s41 7.5 51 22.5s15 35.167 15 60.5v544h48v-547z" />
    <glyph glyph-name="V" unicode="V" horiz-adv-x="322" 
d="M7 667h52l104 -476l101 476h51l-152 -683z" />
    <glyph glyph-name="W" unicode="W" horiz-adv-x="497" 
d="M7 667h50l86 -456l104 462l108 -460l84 454h51l-132 -681l-110 475l-110 -475z" />
    <glyph glyph-name="X" unicode="X" horiz-adv-x="318" 
d="M256 0l-94 358l-99 -358h-53l123 415l-76 252h52l51 -187l47 187h52l-71 -239l120 -428h-52z" />
    <glyph glyph-name="Y" unicode="Y" horiz-adv-x="336" 
d="M145 0v458l-138 209h59l103 -159l101 159h59l-136 -209v-458h-48z" />
    <glyph glyph-name="Z" unicode="Z" horiz-adv-x="267" 
d="M17 0l159 618h-147v49h211l-159 -618h166v-49h-230z" />
    <glyph glyph-name="bracketleft" unicode="[" horiz-adv-x="238" 
d="M200 733v-48h-80v-716h80v-49h-129v813h129z" />
    <glyph glyph-name="backslash" unicode="\" horiz-adv-x="181" 
d="M22 727l189 -800h-48l-191 800h50z" />
    <glyph glyph-name="bracketright" unicode="]" horiz-adv-x="237" 
d="M38 -80v49h80v716h-80v48h129v-813h-129z" />
    <glyph glyph-name="asciicircum" unicode="^" horiz-adv-x="500" 
d="M34 377l183 291h66l184 -291h-57l-160 251l-160 -251h-56z" />
    <glyph glyph-name="underscore" unicode="_" horiz-adv-x="500" 
d="M500 -73v-47h-500v47h500z" />
    <glyph glyph-name="grave" unicode="`" horiz-adv-x="500" 
d="M217 807l63 -93h-50l-63 93h50z" />
    <glyph glyph-name="a" unicode="a" horiz-adv-x="308" 
d="M212 0v454.999h-113v-455h-49v455h-26l-16 49h42c0 56 4 94.333 12 115c14.667 38 45.667 57 93 57c38 0 65.667 -12.667 83 -38c14.667 -21.333 22 -51.666 22 -90.999v-547h-48zM212 563.999c0 18 -4.66797 33.001 -14.001 45.001s-22.666 18 -39.999 18
c-18.667 0 -33.167 -5.83301 -43.5 -17.5s-15.5 -26.834 -15.5 -45.501v-60h113v60z" />
    <glyph glyph-name="b" unicode="b" horiz-adv-x="359" 
d="M47 667h43.999c32.667 0 59.834 -9.5 81.501 -28.5s32.5 -44.833 32.5 -77.5c0 -14 -2.83301 -27 -8.5 -39s-14.167 -23.333 -25.5 -34c53.333 -16 95.833 -45.5 127.5 -88.5s47.5 -92.5 47.5 -148.5c0 -69.333 -24.167 -128.5 -72.5 -177.5s-107.5 -73.5 -177.5 -73.5
h-49v667zM297.999 251c0 59.333 -19.167 107.834 -57.5 145.501s-86.5 56.5 -144.5 56.5v-403c56.667 0 104.5 19.167 143.5 57.5s58.5 86.166 58.5 143.499zM155.999 561.001c0 18 -5.66895 32.668 -17.002 44.001s-25.666 17 -42.999 17v-121
c18.667 1.33301 33.334 7.16602 44.001 17.499s16 24.5 16 42.5z" />
    <glyph glyph-name="c" unicode="c" horiz-adv-x="358" 
d="M20 334c0 96 31.833 175.499 95.5 238.499s142.5 94.5 236.5 94.5v-48c-79.333 0 -146.5 -27.167 -201.5 -81.5s-82.5 -122.166 -82.5 -203.499s27.333 -149.333 82 -204s122 -82 202 -82v-48c-92.667 0 -171.167 32.167 -235.5 96.5s-96.5 143.5 -96.5 237.5z" />
    <glyph glyph-name="d" unicode="d" horiz-adv-x="447" 
d="M48 667h44c94.667 0 174.167 -31.5 238.5 -94.5s96.5 -141.5 96.5 -235.5s-33 -173.667 -99 -239s-146 -98 -240 -98h-40v667zM379 338c0 76.667 -27.667 142.999 -83 198.999s-121.666 84 -198.999 84v-571c79.333 0 146.166 27.833 200.499 83.5
s81.5 123.834 81.5 204.501z" />
    <glyph glyph-name="e" unicode="e" horiz-adv-x="252" 
d="M52 0v454h-25l-18 49h43v164h171v-49h-122v-115h116l18 -49h-134v-405h122v-49h-171z" />
    <glyph glyph-name="f" unicode="f" horiz-adv-x="244" 
d="M52 0v454h-26l-17 49h43v164h167v-49h-118v-115h112l18 -49h-130v-454h-49z" />
    <glyph glyph-name="g" unicode="g" horiz-adv-x="389" 
d="M19 335c0 94 31.832 172.833 95.499 236.5s142.167 95.5 235.5 95.5v-48c-79.333 0 -146.166 -26.833 -200.499 -80.5s-81.5 -121.5 -81.5 -203.5c0 -70 21.5 -130.167 64.5 -180.5s99.167 -83.166 168.5 -98.499v444h49v-500c-96 10 -174 43.333 -234 100
c-64.667 61.333 -97 139.666 -97 234.999z" />
    <glyph glyph-name="h" unicode="h" horiz-adv-x="320" 
d="M223 0v453h-122v-453h-49v453h-24l-18 49h42v165h49v-165h122v165h49v-667h-49z" />
    <glyph glyph-name="i" unicode="i" horiz-adv-x="144" 
d="M47 0v667h49v-667h-49z" />
    <glyph glyph-name="j" unicode="j" horiz-adv-x="192" 
d="M0 48c40.667 12 68.332 31.999 82.999 59.999c12 22.667 18 57.334 18 104.001v406h-98v49h146v-470c0 -53.333 -11.333 -96.333 -34 -129c-25.333 -36 -63.666 -58.667 -114.999 -68v48z" />
    <glyph glyph-name="k" unicode="k" horiz-adv-x="317" 
d="M47 667h49v-154l129 154h64l-141 -165l170 -502h-54l-168 502v-502h-49v667z" />
    <glyph glyph-name="l" unicode="l" horiz-adv-x="218" 
d="M47 0v667h49v-618h125v-49h-174z" />
    <glyph glyph-name="m" unicode="m" horiz-adv-x="435" 
d="M378 0l-82 514l-78 -186l-80 189l-80 -517h-51l110 679l101 -231l100 231l110 -679h-50z" />
    <glyph glyph-name="n" unicode="n" horiz-adv-x="332" 
d="M237 0v509l-141 84v-593h-49v679l190 -115v103h49v-667h-49z" />
    <glyph glyph-name="o" unicode="o" horiz-adv-x="723" 
d="M704 332c0 -94 -33.333 -174.333 -100 -241s-147 -100 -241 -100s-174.667 32.667 -242 98s-101 145.333 -101 240c0 98 33.667 180.333 101 247s150 100 248 100c93.333 0 172.5 -33.833 237.5 -101.5s97.5 -148.5 97.5 -242.5zM68 333
c0 -80.667 28.667 -149.668 86 -207.001s126.666 -86 207.999 -86c80.667 0 149.834 28.167 207.501 84.5s86.5 124.5 86.5 204.5c0 85.333 -29 156.333 -87 213s-129.333 85 -214 85c-78.667 0 -146.167 -29.167 -202.5 -87.5s-84.5 -127.166 -84.5 -206.499z" />
    <glyph glyph-name="p" unicode="p" horiz-adv-x="375" 
d="M47 667h44c74 0 136.667 -26.333 188 -79s77 -116 77 -190s-24.5 -135.833 -73.5 -185.5s-111.167 -78.5 -186.5 -86.5v-126h-49v667zM307 399c0 60.667 -19.833 111 -59.5 151s-90.167 63.333 -151.5 70v-444c59.333 0 109.333 22 150 66s61 96.333 61 157z" />
    <glyph glyph-name="q" unicode="q" horiz-adv-x="721" 
d="M548 49c-56.667 -38.667 -119.999 -58.001 -189.999 -58.001c-93.333 0 -173 33.667 -239 101s-99 148 -99 242c0 94.667 33 175.334 99 242.001s146.667 100 242 100c94.667 0 175.167 -33.5 241.5 -100.5s99.5 -148.167 99.5 -243.5
c0 -51.333 -9.33301 -96.833 -28 -136.5s-47.334 -78.167 -86.001 -115.5l90 -78l-32 -37zM426.001 218.999l125.002 -108c32 26.667 57 59.667 75 99s27 80.333 27 123c0 80.667 -28.5 149.834 -85.5 207.501s-125.5 86.5 -205.5 86.5c-82 0 -151.5 -28.5 -208.5 -85.5
s-85.5 -126.167 -85.5 -207.5c0 -80.667 28.167 -149.834 84.5 -207.501s124.833 -86.5 205.5 -86.5c27.333 0 54.166 3.5 80.499 10.5s50.166 17.5 71.499 31.5l-116 99z" />
    <glyph glyph-name="r" unicode="r" horiz-adv-x="377" 
d="M268 0l-172 144.001v-144h-49v667h37c74 0 137.333 -25.333 190 -76s79 -113.334 79 -188.001c0 -60 -16.333 -112 -49 -156s-78 -77 -136 -99l178 -148h-78zM304 399.001c0 60.667 -19.5 111.167 -58.5 151.5s-88.833 63.5 -149.5 69.5v-437c60 6.66699 109 29 147 67
c40.667 40 61 89.667 61 149z" />
    <glyph glyph-name="s" unicode="s" horiz-adv-x="236" 
d="M7 49c57.333 0 95.668 3.33398 115.001 10.001c39.333 13.333 59 43.333 59 90c0 33.333 -12.833 74 -38.5 122l-75.5 139c-27.333 53.333 -41 97 -41 131c0 42 13.167 73.5 39.5 94.5s61.166 31.5 104.499 31.5h36v-48c-42 0 -70.667 -2.66699 -86 -8
c-30 -10.667 -45 -33 -45 -67c0 -34.667 13.333 -77.334 40 -128.001l74 -132c27.333 -53.333 41 -98.333 41 -135c0 -48 -16.667 -85.333 -50 -112c-30.667 -24.667 -70.667 -37 -120 -37h-53v49z" />
    <glyph glyph-name="t" unicode="t" horiz-adv-x="219" 
d="M86 0v618h-79v49h206v-49h-78v-618h-49z" />
    <glyph glyph-name="u" unicode="u" horiz-adv-x="323" 
d="M276 120c0 -38 -9 -68.332 -27 -90.999c-20 -25.333 -48.667 -38 -86 -38s-66 12.167 -86 36.5s-30 55.833 -30 94.5v545h49v-543c0 -24.667 4.83301 -44.834 14.5 -60.501s26.5 -23.5 50.5 -23.5s41 7.5 51 22.5s15 35.167 15 60.5v544h49v-547z" />
    <glyph glyph-name="v" unicode="v" horiz-adv-x="322" 
d="M7 667h52l104 -475l101 475h52l-153 -683z" />
    <glyph glyph-name="w" unicode="w" horiz-adv-x="497" 
d="M7 667h50l86 -455l104 461l109 -460l83 454h52l-132 -681l-111 475l-110 -475z" />
    <glyph glyph-name="x" unicode="x" horiz-adv-x="318" 
d="M256 0l-94 359l-99 -359h-53l123 415l-76 252h52l51 -187l47 187h52l-71 -239l120 -428h-52z" />
    <glyph glyph-name="y" unicode="y" horiz-adv-x="336" 
d="M145 0v459l-138 208h59l104 -159l100 159h59l-136 -208v-459h-48z" />
    <glyph glyph-name="z" unicode="z" horiz-adv-x="267" 
d="M17 0l159 618h-147v49h211l-159 -618h166v-49h-230z" />
    <glyph glyph-name="braceleft" unicode="{" horiz-adv-x="238" 
d="M203 -31v-49h-18c-46 0 -77.333 15 -94 45c-12.667 22.667 -19 58.334 -19 107.001c0 18 0.333008 36.167 1 54.5l2 55.5c0 34.667 -3.33301 60.334 -10 77.001c-9.33301 23.333 -26 38.666 -50 45.999v44c24 6.66699 40.667 21 50 43
c7.33301 17.333 11 42.666 11 75.999c0 16 -0.833008 38.5 -2.5 67.5s-2.5 46.167 -2.5 51.5c0 47.333 7.33301 81.666 22 102.999c20 28.667 56.667 43 110 43v-48c-34 -4 -57.667 -17.333 -71 -40c-10 -16.667 -15 -42.667 -15 -78
c0 -15.333 0.833008 -37.166 2.5 -65.499s2.5 -45.166 2.5 -50.499c0 -31.333 -3.33301 -55.333 -10 -72c-9.33301 -23.333 -25.666 -40.666 -48.999 -51.999c23.333 -11.333 39.666 -28.333 48.999 -51c7.33301 -18.667 11 -43.334 11 -74.001c0 -13.333 -1 -33.333 -3 -60
s-3 -46.334 -3 -59.001c0 -33.333 5 -58.333 15 -75c13.333 -22 37 -35 71 -39z" />
    <glyph glyph-name="bar" unicode="|" horiz-adv-x="500" 
d="M275 735v-814h-50v814h50z" />
    <glyph glyph-name="braceright" unicode="}" horiz-adv-x="238" 
d="M28 685l0.000976562 47.9961h18c45.333 0 76.666 -15 93.999 -45c12.667 -22 19 -57.333 19 -106c0 -18 -0.333008 -36.333 -1 -55l-2 -55c0 -34.667 3.33301 -60.667 10 -78c9.33301 -23.333 26 -38.666 50 -45.999v-43c-24 -6.66699 -40.167 -20.334 -48.5 -41.001
s-12.5 -47.667 -12.5 -81c0 -15.333 0.833008 -37.166 2.5 -65.499s2.5 -45.5 2.5 -51.5c0 -47.333 -7.33301 -81.666 -22 -102.999c-20 -28.667 -56.667 -43 -110 -43v49c34 4 57.667 17 71 39c10 16.667 15 42.667 15 78c0 12 -1 31.333 -3 58s-3 46.667 -3 60
c0 29.333 4.16699 54.333 12.5 75s23.833 36.667 46.5 48c-22.667 11.333 -38.167 27.333 -46.5 48s-12.5 46.334 -12.5 77.001c0 13.333 1 33.333 3 60s3 46.334 3 59.001c0 33.333 -5 58.333 -15 75c-13.333 22 -37 35 -71 39z" />
    <glyph glyph-name="asciitilde" unicode="~" horiz-adv-x="667" 
d="M94 611c17.333 32.667 34.3311 57 50.998 73c23.333 22 50.333 33 81 33c24 0 60.667 -12.333 110 -37s84.666 -37 105.999 -37c22.667 0 42.334 7.66699 59.001 23c11.333 10 24.333 27.667 39 53l33 -19c-16 -31.333 -33.333 -55.333 -52 -72
c-24.667 -22 -52 -33 -82 -33c-25.333 0 -62.666 12.333 -111.999 37s-84.666 37 -105.999 37c-15.333 0 -30 -5 -44 -15c-18 -13.333 -35 -34.333 -51 -63z" />
    <glyph glyph-name="exclamdown" unicode="&#xa1;" horiz-adv-x="203" 
d="M137 541c0 -23.333 -11.333 -35 -34 -35c-10 0 -18.5 3.16699 -25.5 9.5s-10.5 14.5 -10.5 24.5c0 23.333 12 35 36 35c9.33301 0 17.333 -3.33301 24 -10s10 -14.667 10 -24zM124 448l9 -547h-64l11 547h44z" />
    <glyph glyph-name="cent" unicode="&#xa2;" 
d="M238 27v88c-50 18 -91 47.167 -123 87.5s-48 86.5 -48 138.5c0 52.667 15.667 99 47 139s72.666 68.667 123.999 86v74h46v-62l50 4v-48c-59.333 0 -109.666 -17 -150.999 -51c-44.667 -36.667 -67 -84.667 -67 -144c0 -58 22.333 -105 67 -141
c42 -33.333 92.333 -50 151 -50v-48h-31c-8.66699 2 -15 3.33301 -19 4v-77h-46z" />
    <glyph glyph-name="sterling" unicode="&#xa3;" 
d="M135 0l0.000976562 388h-35v49h35c0 68 20 123.333 60 166s93.333 64 160 64v-47c-52.667 0 -94.334 -17 -125.001 -51s-46 -78 -46 -132h140v-49h-140v-339h171v-49h-220z" />
    <glyph glyph-name="currency" unicode="&#xa4;" 
d="M82 515l60.0029 -61c10 5.33301 20 11 30 17c16.667 8.66699 35 13 55 13c16.667 0 31.667 -2.66699 45 -8c7.33301 -2.66699 20.666 -10 39.999 -22l61 61l36 -36l-61 -61c12 -19.333 19.333 -32.333 22 -39c5.33301 -12.667 8 -28 8 -46
c0 -16 -2.16699 -29.667 -6.5 -41s-12.166 -25.666 -23.499 -42.999l61 -61l-36 -36l-61 60c-12.667 -8.66699 -26.334 -15.834 -41.001 -21.501s-29.334 -8.5 -44.001 -8.5c-16 0 -30.333 2.33301 -43 7s-26.334 12.334 -41.001 23.001l-61 -60l-36 36l60 61l-17 30
c-8.66699 16.667 -13 34.667 -13 54c0 16.667 2.66699 31.667 8 45c2.66699 7.33301 10 20.666 22 39.999l-60 61zM120.003 333c0 -30 10.333 -55.333 31 -76s46.334 -31 77.001 -31c29.333 0 54.333 10.333 75 31s31 46 31 76s-10.333 55.333 -31 76s-46.334 31 -77.001 31
c-29.333 0 -54.333 -10.333 -75 -31s-31 -46 -31 -76z" />
    <glyph glyph-name="yen" unicode="&#xa5;" 
d="M204 0v343h-89v46h89v24h-89v45h89l-138 209h59l104 -159l100 159h59l-135 -209h86v-45h-86v-24h86v-46h-86v-343h-49z" />
    <glyph glyph-name="brokenbar" unicode="&#xa6;" horiz-adv-x="265" 
d="M153 726v-295h-50v295h50zM153 264v-288h-50v288h50z" />
    <glyph glyph-name="section" unicode="&#xa7;" horiz-adv-x="510" 
d="M117 -24l28.998 0.000976562c10 0 20.667 -0.333008 32 -1c44.667 0 77.667 4.33301 99 13c32.667 13.333 49 36.666 49 69.999c0 28 -20.667 68 -62 120l-115 140c-41.333 56 -62 104 -62 144c0 35.333 13.333 66.333 40 93c-6.66699 14 -11 24.833 -13 32.5
s-3 15.167 -3 22.5c0 41.333 20 72.333 60 93c31.333 16 70 24 116 24h51v-49h-26c-42.667 0 -75 -3 -97 -9c-37.333 -10 -56 -28.667 -56 -56c0 -22 21.333 -60 64 -114l121 -150c43.333 -60 65 -107 65 -141c0 -18.667 -3.66699 -36.334 -11 -53.001
s-17.666 -33.667 -30.999 -51c2 -9.33301 3.83301 -18.666 5.5 -27.999s2.5 -19.333 2.5 -30c0 -44.667 -18.667 -76.667 -56 -96c-29.333 -15.333 -68.666 -23 -117.999 -23h-84v49zM359.998 205.001c0 13.333 -3.66699 27.333 -11 42c-4 8 -12 20.333 -24 37l-170 233
c-12.667 -14.667 -19 -32 -19 -52c0 -12 2.5 -24.5 7.5 -37.5s11.5 -25.167 19.5 -36.5l175 -242c6 8 11.167 17 15.5 27s6.5 19.667 6.5 29z" />
    <glyph glyph-name="dieresis" unicode="&#xa8;" horiz-adv-x="286" 
d="M234 764c0 -8.66699 -2.66797 -16 -8.00098 -22s-12.666 -9 -21.999 -9c-8 0 -15 3 -21 9s-9 13.333 -9 22c0 8 3 15 9 21s13.333 9 22 9c7.33301 0 14 -3 20 -9s9 -13 9 -21zM116.999 764c0 -8.66699 -3 -16 -9 -22s-13.333 -9 -22 -9c-20.667 0 -31 10.667 -31 32
c0 8 3 15 9 21s13.333 9 22 9s16 -3 22 -9s9 -13.333 9 -22z" />
    <glyph glyph-name="copyright" unicode="&#xa9;" horiz-adv-x="750" 
d="M723 333c0 -96 -34 -178 -102 -246s-150 -102 -246 -102s-178 34 -246 102s-102 150 -102 246c0 98 34.333 180.667 103 248s152 101 250 101c93.333 0 173.833 -34.5 241.5 -103.5s101.5 -150.833 101.5 -245.5zM64 333c0 -85.333 30.333 -159 91 -221s134 -93 220 -93
c85.333 0 158.333 31 219 93s91 135.667 91 221c0 86.667 -30.333 160.667 -91 222s-134.667 92 -222 92c-85.333 0 -158 -31 -218 -93s-90 -135.667 -90 -221zM243 333c0 55.333 19.167 100.5 57.5 135.5s84.833 52.5 139.5 52.5v-36c-44 0 -81.667 -14.167 -113 -42.5
s-47 -64.833 -47 -109.5c0 -44 15.667 -80.167 47 -108.5s69 -42.5 113 -42.5v-36c-54 0 -100.333 17.667 -139 53s-58 80 -58 134z" />
    <glyph glyph-name="ordfeminine" unicode="&#xaa;" horiz-adv-x="283" 
d="M212 400h-28.999c-36 0 -66.667 13.667 -92 41s-38 59 -38 95s12.667 67 38 93s56.666 39 93.999 39h27v-268zM87.001 536c0 -26.667 8.66797 -50 26.001 -70s38.666 -30 63.999 -30v198c-26 -3.33301 -47.5 -14 -64.5 -32s-25.5 -40 -25.5 -66z" />
    <glyph glyph-name="guillemotleft" unicode="&#xab;" horiz-adv-x="294" 
d="M167 331l87 -263h-45l-90 263l90 238h45zM87 331l88 -263h-47l-88 263l88 238h47z" />
    <glyph glyph-name="logicalnot" unicode="&#xac;" horiz-adv-x="500" 
d="M417 220h-384v47h433v-267h-49v220z" />
    <glyph glyph-name="uni00AD" unicode="&#xad;" horiz-adv-x="207" 
d="M18 294v40h166v-40h-166z" />
    <glyph glyph-name="registered" unicode="&#xae;" horiz-adv-x="750" 
d="M723 333c0 -96 -34 -178 -102 -246s-150 -102 -246 -102s-178 34 -246 102s-102 150 -102 246c0 98 34.333 180.667 103 248s152 101 250 101c93.333 0 173.833 -34.5 241.5 -103.5s101.5 -150.833 101.5 -245.5zM64 333c0 -85.333 30.333 -159 91 -221s134 -93 220 -93
c85.333 0 158.333 31 219 93s91 135.667 91 221c0 86.667 -30.333 160.667 -91 222s-134.667 92 -222 92c-85.333 0 -158 -31 -218 -93s-90 -135.667 -90 -221zM430 146l-91 74v-74h-37v374h25c42.667 0 79.5 -14.167 110.5 -42.5s46.5 -63.833 46.5 -106.5
c0 -32.667 -8.83301 -61.167 -26.5 -85.5s-42.167 -42.833 -73.5 -55.5l105 -84h-59zM447 369c0 30.667 -10.168 56.833 -30.501 78.5s-46.166 34.167 -77.499 37.5v-229c30 3.33301 55.5 15.5 76.5 36.5s31.5 46.5 31.5 76.5z" />
    <glyph glyph-name="macron" unicode="&#xaf;" horiz-adv-x="541" 
d="M18 790v40h500v-40h-500z" />
    <glyph glyph-name="degree" unicode="&#xb0;" horiz-adv-x="337" 
d="M304 543c0 -37.333 -13.332 -68.6641 -39.999 -93.9971s-58.667 -38 -96 -38c-36.667 0 -68.334 12.667 -95.001 38s-40 56.666 -40 93.999s13.333 68.666 40 93.999s59 38 97 38c36.667 0 68.167 -12.833 94.5 -38.5s39.5 -56.834 39.5 -93.501zM75.001 543.002
c0 -26 9.16797 -47.833 27.501 -65.5s40.166 -26.5 65.499 -26.5c26 0 48.167 8.83301 66.5 26.5s27.5 39.5 27.5 65.5c0 25.333 -9.33301 47 -28 65s-41 27 -67 27c-25.333 0 -47 -9 -65 -27s-27 -39.667 -27 -65z" />
    <glyph glyph-name="plusminus" unicode="&#xb1;" 
d="M398 107v-45h-342v45h342zM203 376v154h48v-154h153v-45h-153v-152h-48v152h-152v45h152z" />
    <glyph glyph-name="uni00B2" unicode="&#xb2;" horiz-adv-x="280" 
d="M31 267l99.999 144.999c52.667 79.333 79 129.333 79 150c0 19.333 -7 36 -21 50s-31 21 -51 21s-37.333 -7 -52 -21s-22 -31 -22 -51c0 -23.333 7.83301 -40.833 23.5 -52.5s34.834 -17.5 57.501 -17.5c8 0 16 1 24 3l-27 -41l-10 -1c-29.333 0 -54.333 11 -75 33
s-31 47.667 -31 77c0 30 11 55.667 33 77s48 32 78 32c32 0 58.5 -10.167 79.5 -30.5s31.5 -46.166 31.5 -77.499c0 -28.667 -21.333 -75.667 -64 -141l-82 -117h152v-38h-223z" />
    <glyph glyph-name="uni00B3" unicode="&#xb3;" horiz-adv-x="280" 
d="M35 313c13.333 -5.33301 23.832 -9.00195 31.499 -11.002s16.5 -3 26.5 -3c32 0 59.667 11.333 83 34s35 50.334 35 83.001c0 36.667 -11.667 65.334 -35 86.001s-53 31 -89 31h-12c-5.33301 -1.33301 -9.33301 -2 -12 -2l67 97h-77v39h150l-69 -102
c34 -10 61.833 -28.333 83.5 -55s32.5 -57.667 32.5 -93c0 -43.333 -15.167 -80.166 -45.5 -110.499s-67.166 -45.5 -110.499 -45.5c-12 0 -23 1.16699 -33 3.5s-23 6.16602 -39 11.499z" />
    <glyph glyph-name="acute" unicode="&#xb4;" horiz-adv-x="191" 
d="M86 714h-50l62 93h51z" />
    <glyph glyph-name="mu" unicode="&#xb5;" horiz-adv-x="500" 
d="M56 480l48.998 -0.00195312v-279c0 -54 9.33301 -95 28 -123c22.667 -34.667 60 -52 112 -52c48.667 0 86.667 19.333 114 58c24 34.667 36 77.334 36 128.001v268h49v-480h-49v97c-15.333 -35.333 -35.166 -62.666 -59.499 -81.999s-55.166 -29 -92.499 -29
c-30.667 0 -57 6.5 -79 19.5s-41.667 32.833 -59 59.5v-231h-49v646z" />
    <glyph glyph-name="paragraph" unicode="&#xb6;" 
d="M206 214c-68 0 -118 23.332 -150 69.999c-28 40.667 -42 96.667 -42 168c0 80.667 15.333 144.334 46 191.001c36.667 56 93 84 169 84h191v-49h-55v-751h-49v751h-62v-751h-48v287z" />
    <glyph glyph-name="periodcentered" unicode="&#xb7;" horiz-adv-x="174" 
d="M132 343c0 -14 -4 -25.334 -12 -34.001s-19 -13 -33 -13c-13.333 0 -24.5 4.5 -33.5 13.5s-13.5 19.833 -13.5 32.5c0 14 4.5 25.167 13.5 33.5s20.5 12.5 34.5 12.5c13.333 0 24 -4.16699 32 -12.5s12 -19.166 12 -32.499z" />
    <glyph glyph-name="cedilla" unicode="&#xb8;" horiz-adv-x="163" 
d="M128 -82c0 -23.333 -8 -43 -24 -59s-35.667 -24 -59 -24v40c12.667 0 23 4 31 12s12 18 12 30c0 12.667 -4 23 -12 31s-18.333 12 -31 12v40c23.333 -0 43 -7.66699 59 -23s24 -35 24 -59z" />
    <glyph glyph-name="uni00B9" unicode="&#xb9;" horiz-adv-x="280" 
d="M133 267v352l-67 -27v40l105 41v-406h-38z" />
    <glyph glyph-name="ordmasculine" unicode="&#xba;" horiz-adv-x="333" 
d="M304 533c0 -38 -13.333 -70.333 -40 -97s-59 -40 -97 -40c-37.333 0 -69.666 13.333 -96.999 40s-41 58.667 -41 96c0 40 13.5 73.167 40.5 99.5s60.167 39.5 99.5 39.5c37.333 0 69.166 -13.5 95.499 -40.5s39.5 -59.5 39.5 -97.5zM63 534c0 -28.667 10 -53 30 -73
s44.667 -30 74 -30c28 0 52.167 9.83301 72.5 29.5s30.5 43.5 30.5 71.5c0 30 -10 55 -30 75s-45.333 30 -76 30c-27.333 0 -51 -10.333 -71 -31s-30 -44.667 -30 -72z" />
    <glyph glyph-name="guillemotright" unicode="&#xbb;" horiz-adv-x="294" 
d="M206 306l-87 263h45l90 -263l-90 -238h-45zM128 306l-88 263h47l88 -263l-88 -238h-47z" />
    <glyph glyph-name="onequarter" unicode="&#xbc;" horiz-adv-x="655" 
d="M133 267v352l-67 -27v40l105 41v-406h-38zM108 0l358 667h53l-360 -667h-51zM507 0v96h-155l193 321v-284h48v-37h-48v-96h-38zM507 284l-92 -151h92v151z" />
    <glyph glyph-name="onehalf" unicode="&#xbd;" horiz-adv-x="711" 
d="M133 267v352l-67 -27v40l105 41v-406h-38zM108 0l358 667h53l-360 -667h-51zM418 0c40.667 56.667 74.333 105.332 101 145.999c52 78.667 78 128.667 78 150c0 19.333 -7 36 -21 50s-31 21 -51 21c-19.333 0 -36.333 -7 -51 -21s-22 -31 -22 -51
c0 -23.333 8 -41.333 24 -54c14 -10.667 32.333 -16 55 -16c8.66699 0 17 1 25 3l-27 -42h-8c-29.333 0 -54.5 10.833 -75.5 32.5s-31.5 47.5 -31.5 77.5c0 30.667 10.833 56.5 32.5 77.5s47.5 31.5 77.5 31.5c32 0 58.5 -10.167 79.5 -30.5s31.5 -46.166 31.5 -77.499
c0 -28.667 -21.333 -75.667 -64 -141l-82 -118h152v-38h-223z" />
    <glyph glyph-name="threequarters" unicode="&#xbe;" horiz-adv-x="722" 
d="M71 313c13.333 -5.33301 23.832 -9.00195 31.499 -11.002s16.5 -3 26.5 -3c32 0 59.667 11.333 83 34s35 50.334 35 83.001c0 36.667 -11.667 65.334 -35 86.001s-53 31 -89 31h-12c-5.33301 -1.33301 -9.33301 -2 -12 -2l67 97h-77v39h150l-69 -102
c34 -10 61.833 -28.333 83.5 -55s32.5 -57.667 32.5 -93c0 -43.333 -15.167 -80.166 -45.5 -110.499s-67.166 -45.5 -110.499 -45.5c-12 0 -23 1.16699 -33 3.5s-23 6.16602 -39 11.499zM143.999 -0.00195312l358 667h53l-359 -667h-52zM542.999 -0.00195312v96h-155
l193 321v-284h49v-37h-49v-96h-38zM542.999 283.998l-91 -151h91v151z" />
    <glyph glyph-name="questiondown" unicode="&#xbf;" horiz-adv-x="351" 
d="M304 542c0 -9.33301 -3.66797 -17.667 -11.001 -25s-15.666 -11 -24.999 -11s-17.333 3 -24 9s-10 14 -10 24c0 24.667 12 37 36 37c9.33301 0 17.333 -3.33301 24 -10s10 -14.667 10 -24zM294.999 398.999c-61.333 -8 -111.333 -31.998 -150 -71.998s-58 -91 -58 -153
c0 -61.333 20 -112.333 60 -153c36.667 -37.333 86 -61.666 148 -72.999v-47c-76 9.33301 -137 37.666 -183 84.999c-48.667 50 -73 112.667 -73 188s24 137.666 72 186.999s109.333 77.666 184 84.999v-47z" />
    <glyph glyph-name="Agrave" unicode="&#xc0;" horiz-adv-x="308" 
d="M212 0v454.999h-113v-455h-49v455h-26l-16 49h42c0 56 4 94.333 12 115c14.667 38 45.667 57 93 57c38 0 65.667 -12.667 83 -38c14.667 -21.333 22 -51.666 22 -90.999v-547h-48zM212 563.999c0 18 -4.66797 33.001 -14.001 45.001s-22.666 18 -39.999 18
c-18.667 0 -33.167 -5.83301 -43.5 -17.5s-15.5 -26.834 -15.5 -45.501v-60h113v60zM120.999 807l63 -93h-50l-64 93h51z" />
    <glyph glyph-name="Aacute" unicode="&#xc1;" horiz-adv-x="308" 
d="M212 0v454.999h-113v-455h-49v455h-26l-16 49h42c0 56 4 94.333 12 115c14.667 38 45.667 57 93 57c38 0 65.667 -12.667 83 -38c14.667 -21.333 22 -51.666 22 -90.999v-547h-48zM212 563.999c0 18 -4.66797 33.001 -14.001 45.001s-22.666 18 -39.999 18
c-18.667 0 -33.167 -5.83301 -43.5 -17.5s-15.5 -26.834 -15.5 -45.501v-60h113v60zM173.999 714h-50l62 93h51z" />
    <glyph glyph-name="Acircumflex" unicode="&#xc2;" horiz-adv-x="308" 
d="M212 0v454.999h-113v-455h-49v455h-26l-16 49h42c0 56 4 94.333 12 115c14.667 38 45.667 57 93 57c38 0 65.667 -12.667 83 -38c14.667 -21.333 22 -51.666 22 -90.999v-547h-48zM212 563.999c0 18 -4.66797 33.001 -14.001 45.001s-22.666 18 -39.999 18
c-18.667 0 -33.167 -5.83301 -43.5 -17.5s-15.5 -26.834 -15.5 -45.501v-60h113v60zM153.999 759l-100 -45l-17 37l117 56l117 -56l-17 -37z" />
    <glyph glyph-name="Atilde" unicode="&#xc3;" horiz-adv-x="308" 
d="M212 0v454.999h-113v-455h-49v455h-26l-16 49h42c0 56 4 94.333 12 115c14.667 38 45.667 57 93 57c38 0 65.667 -12.667 83 -38c14.667 -21.333 22 -51.666 22 -90.999v-547h-48zM212 563.999c0 18 -4.66797 33.001 -14.001 45.001s-22.666 18 -39.999 18
c-18.667 0 -33.167 -5.83301 -43.5 -17.5s-15.5 -26.834 -15.5 -45.501v-60h113v60zM188.999 734c-9.33301 0 -22.332 2.66797 -38.999 8.00098s-29.334 8 -38.001 8c-6.66699 0 -14 -2 -22 -6c-1.33301 -0.666992 -5.33301 -3.33398 -12 -8.00098l-30 32
c18.667 17.333 40.667 26 66 26c9.33301 0 19.333 -1.66699 30 -5c28 -8.66699 44.667 -13 50 -13c6 0 12 1.83301 18 5.5s12 8.16699 18 13.5l29 -32c-10 -9.33301 -20.833 -16.5 -32.5 -21.5s-24.167 -7.5 -37.5 -7.5z" />
    <glyph glyph-name="Adieresis" unicode="&#xc4;" horiz-adv-x="308" 
d="M212 0v454.999h-113v-455h-49v455h-26l-16 49h42c0 56 4 94.333 12 115c14.667 38 45.667 57 93 57c38 0 65.667 -12.667 83 -38c14.667 -21.333 22 -51.666 22 -90.999v-547h-48zM212 563.999c0 18 -4.66797 33.001 -14.001 45.001s-22.666 18 -39.999 18
c-18.667 0 -33.167 -5.83301 -43.5 -17.5s-15.5 -26.834 -15.5 -45.501v-60h113v60zM242.999 764c0 -8.66699 -2.83203 -15.832 -8.49902 -21.499s-12.834 -8.5 -21.501 -8.5c-8 0 -15 3 -21 9s-9 13.333 -9 22c0 8 3.16699 14.833 9.5 20.5s13.5 8.5 21.5 8.5
s14.833 -2.83301 20.5 -8.5s8.5 -12.834 8.5 -21.501zM126 765.002c0 -8.66699 -3 -16 -9 -22s-13.333 -9 -22 -9s-16 3 -22 9s-9 13.333 -9 22c0 8 3 15 9 21s13.333 9 22 9s16 -3 22 -9s9 -13 9 -21z" />
    <glyph glyph-name="Aring" unicode="&#xc5;" horiz-adv-x="308" 
d="M211 0v454.998h-112v-455h-49v455h-26l-16 48h42c0 56.667 4 95.334 12 116.001c14.667 38 45.667 57 93 57c38 0 65.667 -12.667 83 -38c14.667 -21.333 22 -51.666 22 -90.999v-547h-49zM211 563.998c0 18.667 -4.33301 33.833 -13 45.5s-22 17.5 -40 17.5
c-18.667 0 -33.167 -5.83301 -43.5 -17.5s-15.5 -27.167 -15.5 -46.5v-60h112v61zM213 770.997c0 -16 -5.66797 -29.999 -17.001 -41.999s-25.333 -18 -42 -18c-17.333 0 -31.666 6 -42.999 18s-17 26.333 -17 43c0 17.333 5.66699 31.666 17 42.999s26 17 44 17
c16 0 29.667 -6 41 -18s17 -26.333 17 -43zM122.999 771.998c0 -20.667 10.333 -31 31 -31c10 0 17.833 2.83301 23.5 8.5s8.5 13.167 8.5 22.5c0 20.667 -10.667 31 -32 31c-8.66699 0 -16 -3 -22 -9s-9 -13.333 -9 -22z" />
    <glyph glyph-name="AE" unicode="&#xc6;" horiz-adv-x="406" 
d="M208 0l0.000976562 453h-112v-453h-49v453h-25l-17 49h42c0 50 15.667 90 47 120s72.666 45 123.999 45h163v-49h-124v-116h119l17 -49h-136v-404h124v-49h-173zM208.001 618c-33.333 0 -60.333 -11 -81 -33s-31 -49.667 -31 -83h112v116z" />
    <glyph glyph-name="Ccedilla" unicode="&#xc7;" horiz-adv-x="358" 
d="M20 334c0 96 31.833 175.499 95.5 238.499s142.5 94.5 236.5 94.5v-48c-79.333 0 -146.5 -27.167 -201.5 -81.5s-82.5 -122.166 -82.5 -203.499s27.333 -149.333 82 -204s122 -82 202 -82v-48c-92.667 0 -171.167 32.167 -235.5 96.5s-96.5 143.5 -96.5 237.5z
M324 -82.001c0 -23.333 -8 -43 -24 -59s-35.667 -24 -59 -24v39c12 0 22.333 4 31 12s13 18.333 13 31s-4 23 -12 31s-18.667 12 -32 12v40c23.333 0 43 -7.66699 59 -23s24 -35 24 -59z" />
    <glyph glyph-name="Egrave" unicode="&#xc8;" horiz-adv-x="252" 
d="M52 0v454h-25l-18 49h43v164h171v-49h-122v-115h116l18 -49h-134v-405h122v-49h-171zM93 807l63 -93h-50l-63 93h50z" />
    <glyph glyph-name="Eacute" unicode="&#xc9;" horiz-adv-x="252" 
d="M52 0v454h-25l-18 49h43v164h171v-49h-122v-115h116l18 -49h-134v-405h122v-49h-171zM146 714h-50l62 93h52z" />
    <glyph glyph-name="Ecircumflex" unicode="&#xca;" horiz-adv-x="252" 
d="M52 0v454h-25l-18 49h43v164h171v-49h-122v-115h116l18 -49h-134v-405h122v-49h-171zM132 759l-99 -45l-17 37l116 56l118 -56l-17 -37z" />
    <glyph glyph-name="Edieresis" unicode="&#xcb;" horiz-adv-x="252" 
d="M52 0v454h-25l-18 49h43v164h171v-49h-122v-115h116l18 -49h-134v-405h122v-49h-171zM222 764c0 -8.66699 -2.83203 -15.832 -8.49902 -21.499s-12.834 -8.5 -21.501 -8.5c-8 0 -15 3 -21 9s-9 13.333 -9 22c0 8 3.16699 14.833 9.5 20.5s13.5 8.5 21.5 8.5
s14.833 -2.83301 20.5 -8.5s8.5 -12.834 8.5 -21.501zM105.001 765.002c0 -8.66699 -3 -16 -9 -22s-13.333 -9 -22 -9s-16 3 -22 9s-9 13.333 -9 22c0 8 3 15 9 21s13.333 9 22 9s16 -3 22 -9s9 -13 9 -21z" />
    <glyph glyph-name="Igrave" unicode="&#xcc;" horiz-adv-x="144" 
d="M47 0v667h49v-667h-49zM39 807l63 -93h-50l-64 93h51z" />
    <glyph glyph-name="Iacute" unicode="&#xcd;" horiz-adv-x="144" 
d="M47 0v667h49v-667h-49zM92 714h-50l62 93h51z" />
    <glyph glyph-name="Icircumflex" unicode="&#xce;" horiz-adv-x="204" 
d="M78 0v667h49v-667h-49zM103 758l-62 -42l-22 35l84 56l83 -56l-21 -35z" />
    <glyph glyph-name="Idieresis" unicode="&#xcf;" horiz-adv-x="181" 
d="M65 0v667h49v-667h-49zM163 764c0 -8.66699 -2.83301 -15.832 -8.5 -21.499s-12.834 -8.5 -21.501 -8.5c-8 0 -15 3 -21 9s-9 13.333 -9 22c0 7.33301 3 14 9 20s13 9 21 9c8.66699 0 15.834 -2.83301 21.501 -8.5s8.5 -12.834 8.5 -21.501zM79 765.002
c0 -8.66699 -3 -16 -9 -22s-13.333 -9 -22 -9s-16 3 -22 9s-9 13.333 -9 22c0 8 3 15 9 21s13.333 9 22 9s16 -3 22 -9s9 -13 9 -21z" />
    <glyph glyph-name="Eth" unicode="&#xd0;" horiz-adv-x="451" 
d="M27 454l-18 48h43v165h45c94 0 173.333 -31.667 238 -95s97 -142 97 -236c0 -106.667 -37.667 -190.667 -113 -252c-69.333 -56 -158.333 -84 -267 -84v454h-25zM101 50c78.667 0 145.332 27.667 199.999 83s82 123.333 82 204c0 77.333 -27.667 144 -83 200
s-121.666 84 -198.999 84v-119h116l18 -48h-134v-404z" />
    <glyph glyph-name="Ntilde" unicode="&#xd1;" horiz-adv-x="332" 
d="M237 0v509l-141 84v-593h-49v679l190 -115v103h49v-667h-49zM201 734c-8.66699 0 -21.333 2.66797 -38 8.00098s-29.667 8 -39 8c-6.66699 0 -14 -2 -22 -6c-1.33301 -0.666992 -5.33301 -3.33398 -12 -8.00098l-29 32c18.667 17.333 40.667 26 66 26
c8.66699 0 21.667 -3 39 -9s30.666 -9 39.999 -9c6.66699 0 12.834 1.66699 18.501 5s11.5 8 17.5 14l30 -32c-10.667 -9.33301 -22 -16.5 -34 -21.5s-24.333 -7.5 -37 -7.5z" />
    <glyph glyph-name="Ograve" unicode="&#xd2;" horiz-adv-x="723" 
d="M704 332c0 -94 -33.333 -174.333 -100 -241s-147 -100 -241 -100s-174.667 32.667 -242 98s-101 145.333 -101 240c0 98 33.667 180.333 101 247s150 100 248 100c93.333 0 172.5 -33.833 237.5 -101.5s97.5 -148.5 97.5 -242.5zM68 333
c0 -80.667 28.667 -149.668 86 -207.001s126.666 -86 207.999 -86c80.667 0 149.834 28.167 207.501 84.5s86.5 124.5 86.5 204.5c0 85.333 -29 156.333 -87 213s-129.333 85 -214 85c-78.667 0 -146.167 -29.167 -202.5 -87.5s-84.5 -127.166 -84.5 -206.499zM329 806.999
l63 -93h-50l-64 93h51z" />
    <glyph glyph-name="Oacute" unicode="&#xd3;" horiz-adv-x="723" 
d="M704 332c0 -94 -33.333 -174.333 -100 -241s-147 -100 -241 -100s-174.667 32.667 -242 98s-101 145.333 -101 240c0 98 33.667 180.333 101 247s150 100 248 100c93.333 0 172.5 -33.833 237.5 -101.5s97.5 -148.5 97.5 -242.5zM68 333
c0 -80.667 28.667 -149.668 86 -207.001s126.666 -86 207.999 -86c80.667 0 149.834 28.167 207.501 84.5s86.5 124.5 86.5 204.5c0 85.333 -29 156.333 -87 213s-129.333 85 -214 85c-78.667 0 -146.167 -29.167 -202.5 -87.5s-84.5 -127.166 -84.5 -206.499zM382 713.999
h-50l62 93h52z" />
    <glyph glyph-name="Ocircumflex" unicode="&#xd4;" horiz-adv-x="723" 
d="M704 332c0 -94 -33.333 -174.333 -100 -241s-147 -100 -241 -100s-174.667 32.667 -242 98s-101 145.333 -101 240c0 98 33.667 180.333 101 247s150 100 248 100c93.333 0 172.5 -33.833 237.5 -101.5s97.5 -148.5 97.5 -242.5zM68 333
c0 -80.667 28.667 -149.668 86 -207.001s126.666 -86 207.999 -86c80.667 0 149.834 28.167 207.501 84.5s86.5 124.5 86.5 204.5c0 85.333 -29 156.333 -87 213s-129.333 85 -214 85c-78.667 0 -146.167 -29.167 -202.5 -87.5s-84.5 -127.166 -84.5 -206.499zM362 758.999
l-100 -45l-17 37l117 56l117 -56l-17 -37z" />
    <glyph glyph-name="Otilde" unicode="&#xd5;" horiz-adv-x="723" 
d="M704 332c0 -94 -33.333 -174.333 -100 -241s-147 -100 -241 -100s-174.667 32.667 -242 98s-101 145.333 -101 240c0 98 33.667 180.333 101 247s150 100 248 100c93.333 0 172.5 -33.833 237.5 -101.5s97.5 -148.5 97.5 -242.5zM68 333
c0 -80.667 28.667 -149.668 86 -207.001s126.666 -86 207.999 -86c80.667 0 149.834 28.167 207.501 84.5s86.5 124.5 86.5 204.5c0 85.333 -29 156.333 -87 213s-129.333 85 -214 85c-78.667 0 -146.167 -29.167 -202.5 -87.5s-84.5 -127.166 -84.5 -206.499zM397 733.999
c-9.33301 0 -22.332 2.66797 -38.999 8.00098s-29.334 8 -38.001 8c-6.66699 0 -14 -2 -22 -6c-1.33301 -0.666992 -5.33301 -3.33398 -12 -8.00098l-30 32c18.667 17.333 40.667 26 66 26c9.33301 0 19.333 -1.66699 30 -5c28 -8.66699 44.667 -13 50 -13
c6 0 12 1.83301 18 5.5s12 8.16699 18 13.5l29 -32c-10 -9.33301 -20.833 -16.5 -32.5 -21.5s-24.167 -7.5 -37.5 -7.5z" />
    <glyph glyph-name="Odieresis" unicode="&#xd6;" horiz-adv-x="723" 
d="M704 332c0 -94 -33.333 -174.333 -100 -241s-147 -100 -241 -100s-174.667 32.667 -242 98s-101 145.333 -101 240c0 98 33.667 180.333 101 247s150 100 248 100c93.333 0 172.5 -33.833 237.5 -101.5s97.5 -148.5 97.5 -242.5zM68 333
c0 -80.667 28.667 -149.668 86 -207.001s126.666 -86 207.999 -86c80.667 0 149.834 28.167 207.501 84.5s86.5 124.5 86.5 204.5c0 85.333 -29 156.333 -87 213s-129.333 85 -214 85c-78.667 0 -146.167 -29.167 -202.5 -87.5s-84.5 -127.166 -84.5 -206.499zM451 763.999
c0 -8.66699 -2.83203 -15.832 -8.49902 -21.499s-12.834 -8.5 -21.501 -8.5c-8 0 -15 3 -21 9s-9 13.333 -9 22c0 8 3.16699 14.833 9.5 20.5s13.5 8.5 21.5 8.5s14.833 -2.83301 20.5 -8.5s8.5 -12.834 8.5 -21.501zM334.001 765.001c0 -8.66699 -3 -16 -9 -22
s-13.333 -9 -22 -9s-16 3 -22 9s-9 13.333 -9 22c0 8 3 15 9 21s13.333 9 22 9s16 -3 22 -9s9 -13 9 -21z" />
    <glyph glyph-name="multiply" unicode="&#xd7;" horiz-adv-x="456" 
d="M228 365l127 127.001l5 -5c2.66699 -2.66699 5.66699 -5.83398 9 -9.50098s6.66602 -7 9.99902 -10s6 -5.5 8 -7.5l-127 -127l30.5 -31l33.5 -33l32 -32l31 -30l-16 -16.5c-5.33301 -5.66699 -10.666 -11.834 -15.999 -18.501l-127 129l-28.5 -28.5l-33.5 -34l-34 -35
l-30 -31.5l-16.5 18l-16.5 17l127 126l-12.5 12l-16.5 16l-26.5 26.5l-28 28.5l-25.5 25.5c-8 7.66699 -14 13.834 -18 18.501l6.5 6.5c3 3 6.16699 6 9.5 9s6.5 6 9.5 9l7.5 7.5z" />
    <glyph glyph-name="Oslash" unicode="&#xd8;" horiz-adv-x="729" 
d="M600 570c32 -31.333 56.334 -67.333 73.001 -108s25 -83 25 -127c0 -90.667 -32.833 -168.667 -98.5 -234s-144.167 -98 -235.5 -98c-36.667 0 -71.834 5.83301 -105.501 17.5s-66.167 28.834 -97.5 51.501l-62 -71l-35 30l63 72c-30.667 29.333 -54.5 64.5 -71.5 105.5
s-25.5 83.5 -25.5 127.5c0 91.333 32.5 169.666 97.5 234.999s143.833 98 236.5 98c38 0 72.5 -5.5 103.5 -16.5s63.833 -28.167 98.5 -51.5l60 70l36 -31zM192.001 108c28.667 -19.333 56.5 -33.834 83.5 -43.501s56.5 -14.5 88.5 -14.5c78.667 0 146 28 202 84
s84 123.333 84 202c0 37.333 -6.83301 72.833 -20.5 106.5s-33.5 63.834 -59.5 90.501zM364.001 621.999c-78.667 0 -146 -27.668 -202 -83.001s-84 -122.666 -84 -201.999c0 -39.333 6.5 -74.333 19.5 -105s33.167 -62 60.5 -94l376 427c-49.333 38 -106 57 -170 57z" />
    <glyph glyph-name="Ugrave" unicode="&#xd9;" horiz-adv-x="323" 
d="M276 120c0 -38 -9 -68.332 -27 -90.999c-20 -25.333 -48.667 -38 -86 -38s-66 12.167 -86 36.5s-30 55.833 -30 94.5v545h49v-543c0 -24.667 4.83301 -44.834 14.5 -60.501s26.5 -23.5 50.5 -23.5s41 7.5 51 22.5s15 35.167 15 60.5v544h49v-547zM129 807.001l63 -93h-51
l-63 93h51z" />
    <glyph glyph-name="Uacute" unicode="&#xda;" horiz-adv-x="323" 
d="M276 120c0 -38 -9 -68.332 -27 -90.999c-20 -25.333 -48.667 -38 -86 -38s-66 12.167 -86 36.5s-30 55.833 -30 94.5v545h49v-543c0 -24.667 4.83301 -44.834 14.5 -60.501s26.5 -23.5 50.5 -23.5s41 7.5 51 22.5s15 35.167 15 60.5v544h49v-547zM182 714.001h-51l63 93
h51z" />
    <glyph glyph-name="Ucircumflex" unicode="&#xdb;" horiz-adv-x="323" 
d="M276 120c0 -38 -9 -68.332 -27 -90.999c-20 -25.333 -48.667 -38 -86 -38s-66 12.167 -86 36.5s-30 55.833 -30 94.5v545h49v-543c0 -24.667 4.83301 -44.834 14.5 -60.501s26.5 -23.5 50.5 -23.5s41 7.5 51 22.5s15 35.167 15 60.5v544h49v-547zM161 759.001l-99 -45
l-17 37l116 56l118 -56l-18 -37z" />
    <glyph glyph-name="Udieresis" unicode="&#xdc;" horiz-adv-x="323" 
d="M276 120c0 -38 -9 -68.332 -27 -90.999c-20 -25.333 -48.667 -38 -86 -38s-66 12.167 -86 36.5s-30 55.833 -30 94.5v545h49v-543c0 -24.667 4.83301 -44.834 14.5 -60.501s26.5 -23.5 50.5 -23.5s41 7.5 51 22.5s15 35.167 15 60.5v544h49v-547zM251 764.001
c0 -8.66699 -2.83301 -15.832 -8.5 -21.499s-12.834 -8.5 -21.501 -8.5c-8 0 -15 3 -21 9s-9 13.333 -9 22c0 7.33301 3 14 9 20s13 9 21 9c8.66699 0 15.834 -2.83301 21.501 -8.5s8.5 -12.834 8.5 -21.501zM133 765.003c0 -20.667 -10 -31 -30 -31c-8.66699 0 -16 3 -22 9
s-9 13.333 -9 22c0 8 3 15 9 21s13.333 9 22 9c8 0 15 -3 21 -9s9 -13 9 -21z" />
    <glyph glyph-name="Yacute" unicode="&#xdd;" horiz-adv-x="336" 
d="M145 0v459l-138 208h59l104 -159l100 159h59l-136 -208v-459h-48zM188 714h-50l62 93h52z" />
    <glyph glyph-name="Thorn" unicode="&#xde;" horiz-adv-x="375" 
d="M47 667h49v-80c68.667 0 128.334 -21.333 179.001 -64c54 -46 81 -103 81 -171s-27 -124.333 -81 -169c-48.667 -40 -108.334 -63.333 -179.001 -70v-113h-49v667zM307 352c0 54.667 -22.001 99.333 -66.001 134c-39.333 31.333 -87.666 49.333 -144.999 54v-377
c56 0 104.333 17 145 51c44 36.667 66 82.667 66 138z" />
    <glyph glyph-name="germandbls" unicode="&#xdf;" horiz-adv-x="500" 
d="M127 501c7.33301 0 14 5.33496 20 16.002s9 25.334 9 44.001c0 18 -5.66699 32.667 -17 44s-25.666 17 -42.999 17l-7 -622h-42v667h44c32.667 0 59.834 -9.5 81.501 -28.5s32.5 -44.833 32.5 -77.5c0 -26.667 -11.333 -51.334 -34 -74.001
c53.333 -15.333 95.833 -44.5 127.5 -87.5s47.5 -92.833 47.5 -149.5c0 -69.333 -24.333 -128.333 -73 -177s-99.334 -73 -152.001 -73c-0.666992 -0.666992 -0.833984 1.66602 -0.500977 6.99902s0.5 11 0.5 17v24c39.333 1.33301 78.5 21.166 117.5 59.499
s58.5 85.833 58.5 142.5c0 60.667 -19 109.667 -57 147s-75.667 55.333 -113 54v50z" />
    <glyph glyph-name="agrave" unicode="&#xe0;" horiz-adv-x="308" 
d="M212 0v454.999h-113v-455h-49v455h-26l-16 49h42c0 56 4 94.333 12 115c14.667 38 45.667 57 93 57c38 0 65.667 -12.667 83 -38c14.667 -21.333 22 -51.666 22 -90.999v-547h-48zM212 563.999c0 18 -4.66797 33.001 -14.001 45.001s-22.666 18 -39.999 18
c-18.667 0 -33.167 -5.83301 -43.5 -17.5s-15.5 -26.834 -15.5 -45.501v-60h113v60zM120.999 807l63 -93h-50l-64 93h51z" />
    <glyph glyph-name="aacute" unicode="&#xe1;" horiz-adv-x="308" 
d="M212 0v454.999h-113v-455h-49v455h-26l-16 49h42c0 56 4 94.333 12 115c14.667 38 45.667 57 93 57c38 0 65.667 -12.667 83 -38c14.667 -21.333 22 -51.666 22 -90.999v-547h-48zM212 563.999c0 18 -4.66797 33.001 -14.001 45.001s-22.666 18 -39.999 18
c-18.667 0 -33.167 -5.83301 -43.5 -17.5s-15.5 -26.834 -15.5 -45.501v-60h113v60zM173.999 714h-50l62 93h51z" />
    <glyph glyph-name="acircumflex" unicode="&#xe2;" horiz-adv-x="308" 
d="M212 0v454.999h-113v-455h-49v455h-26l-16 49h42c0 56 4 94.333 12 115c14.667 38 45.667 57 93 57c38 0 65.667 -12.667 83 -38c14.667 -21.333 22 -51.666 22 -90.999v-547h-48zM212 563.999c0 18 -4.66797 33.001 -14.001 45.001s-22.666 18 -39.999 18
c-18.667 0 -33.167 -5.83301 -43.5 -17.5s-15.5 -26.834 -15.5 -45.501v-60h113v60zM153.999 759l-100 -45l-17 37l117 56l117 -56l-17 -37z" />
    <glyph glyph-name="atilde" unicode="&#xe3;" horiz-adv-x="308" 
d="M212 0v454.999h-113v-455h-49v455h-26l-16 49h42c0 56 4 94.333 12 115c14.667 38 45.667 57 93 57c38 0 65.667 -12.667 83 -38c14.667 -21.333 22 -51.666 22 -90.999v-547h-48zM212 563.999c0 18 -4.66797 33.001 -14.001 45.001s-22.666 18 -39.999 18
c-18.667 0 -33.167 -5.83301 -43.5 -17.5s-15.5 -26.834 -15.5 -45.501v-60h113v60zM188.999 734c-9.33301 0 -22.332 2.66797 -38.999 8.00098s-29.334 8 -38.001 8c-6.66699 0 -14 -2 -22 -6c-1.33301 -0.666992 -5.33301 -3.33398 -12 -8.00098l-30 32
c18.667 17.333 40.667 26 66 26c9.33301 0 19.333 -1.66699 30 -5c28 -8.66699 44.667 -13 50 -13c6 0 12 1.83301 18 5.5s12 8.16699 18 13.5l29 -32c-10 -9.33301 -20.833 -16.5 -32.5 -21.5s-24.167 -7.5 -37.5 -7.5z" />
    <glyph glyph-name="adieresis" unicode="&#xe4;" horiz-adv-x="308" 
d="M212 0v454.999h-113v-455h-49v455h-26l-16 49h42c0 56 4 94.333 12 115c14.667 38 45.667 57 93 57c38 0 65.667 -12.667 83 -38c14.667 -21.333 22 -51.666 22 -90.999v-547h-48zM212 563.999c0 18 -4.66797 33.001 -14.001 45.001s-22.666 18 -39.999 18
c-18.667 0 -33.167 -5.83301 -43.5 -17.5s-15.5 -26.834 -15.5 -45.501v-60h113v60zM242.999 764c0 -8.66699 -2.83203 -15.832 -8.49902 -21.499s-12.834 -8.5 -21.501 -8.5c-8 0 -15 3 -21 9s-9 13.333 -9 22c0 8 3.16699 14.833 9.5 20.5s13.5 8.5 21.5 8.5
s14.833 -2.83301 20.5 -8.5s8.5 -12.834 8.5 -21.501zM126 765.002c0 -8.66699 -3 -16 -9 -22s-13.333 -9 -22 -9s-16 3 -22 9s-9 13.333 -9 22c0 8 3 15 9 21s13.333 9 22 9s16 -3 22 -9s9 -13 9 -21z" />
    <glyph glyph-name="aring" unicode="&#xe5;" horiz-adv-x="308" 
d="M211 0v454.998h-112v-455h-49v455h-26l-16 48h42c0 56.667 4 95.334 12 116.001c14.667 38 45.667 57 93 57c38 0 65.667 -12.667 83 -38c14.667 -21.333 22 -51.666 22 -90.999v-547h-49zM211 563.998c0 18.667 -4.33301 33.833 -13 45.5s-22 17.5 -40 17.5
c-18.667 0 -33.167 -5.83301 -43.5 -17.5s-15.5 -27.167 -15.5 -46.5v-60h112v61zM213 770.997c0 -16 -5.66797 -29.999 -17.001 -41.999s-25.333 -18 -42 -18c-17.333 0 -31.666 6 -42.999 18s-17 26.333 -17 43c0 17.333 5.66699 31.666 17 42.999s26 17 44 17
c16 0 29.667 -6 41 -18s17 -26.333 17 -43zM122.999 771.998c0 -20.667 10.333 -31 31 -31c10 0 17.833 2.83301 23.5 8.5s8.5 13.167 8.5 22.5c0 20.667 -10.667 31 -32 31c-8.66699 0 -16 -3 -22 -9s-9 -13.333 -9 -22z" />
    <glyph glyph-name="ae" unicode="&#xe6;" horiz-adv-x="406" 
d="M208 0l0.000976562 453h-112v-453h-49v453h-25l-17 49h42c0 50 15.667 90 47 120s72.666 45 123.999 45h163v-49h-124v-116h119l17 -49h-136v-404h124v-49h-173zM208.001 618c-33.333 0 -60.333 -11 -81 -33s-31 -49.667 -31 -83h112v116z" />
    <glyph glyph-name="ccedilla" unicode="&#xe7;" horiz-adv-x="358" 
d="M20 334c0 96 31.833 175.499 95.5 238.499s142.5 94.5 236.5 94.5v-48c-79.333 0 -146.5 -27.167 -201.5 -81.5s-82.5 -122.166 -82.5 -203.499s27.333 -149.333 82 -204s122 -82 202 -82v-48c-92.667 0 -171.167 32.167 -235.5 96.5s-96.5 143.5 -96.5 237.5z
M324 -82.001c0 -23.333 -8 -43 -24 -59s-35.667 -24 -59 -24v39c12 0 22.333 4 31 12s13 18.333 13 31s-4 23 -12 31s-18.667 12 -32 12v40c23.333 0 43 -7.66699 59 -23s24 -35 24 -59z" />
    <glyph glyph-name="egrave" unicode="&#xe8;" horiz-adv-x="252" 
d="M52 0v454h-25l-18 49h43v164h171v-49h-122v-115h116l18 -49h-134v-405h122v-49h-171zM93 807l63 -93h-50l-63 93h50z" />
    <glyph glyph-name="eacute" unicode="&#xe9;" horiz-adv-x="252" 
d="M52 0v454h-25l-18 49h43v164h171v-49h-122v-115h116l18 -49h-134v-405h122v-49h-171zM146 714h-50l62 93h52z" />
    <glyph glyph-name="ecircumflex" unicode="&#xea;" horiz-adv-x="252" 
d="M52 0v454h-25l-18 49h43v164h171v-49h-122v-115h116l18 -49h-134v-405h122v-49h-171zM132 759l-99 -45l-17 37l116 56l118 -56l-17 -37z" />
    <glyph glyph-name="edieresis" unicode="&#xeb;" horiz-adv-x="252" 
d="M52 0v454h-25l-18 49h43v164h171v-49h-122v-115h116l18 -49h-134v-405h122v-49h-171zM222 764c0 -8.66699 -2.83203 -15.832 -8.49902 -21.499s-12.834 -8.5 -21.501 -8.5c-8 0 -15 3 -21 9s-9 13.333 -9 22c0 8 3.16699 14.833 9.5 20.5s13.5 8.5 21.5 8.5
s14.833 -2.83301 20.5 -8.5s8.5 -12.834 8.5 -21.501zM105.001 765.002c0 -8.66699 -3 -16 -9 -22s-13.333 -9 -22 -9s-16 3 -22 9s-9 13.333 -9 22c0 8 3 15 9 21s13.333 9 22 9s16 -3 22 -9s9 -13 9 -21z" />
    <glyph glyph-name="igrave" unicode="&#xec;" horiz-adv-x="144" 
d="M47 0v667h49v-667h-49zM39 807l63 -93h-50l-64 93h51z" />
    <glyph glyph-name="iacute" unicode="&#xed;" horiz-adv-x="144" 
d="M47 0v667h49v-667h-49zM92 714h-50l62 93h51z" />
    <glyph glyph-name="icircumflex" unicode="&#xee;" horiz-adv-x="201" 
d="M78 0v667h49v-667h-49zM103 758l-62 -42l-22 35l84 56l83 -56l-21 -35z" />
    <glyph glyph-name="idieresis" unicode="&#xef;" horiz-adv-x="181" 
d="M65 0v667h49v-667h-49zM163 764c0 -8.66699 -2.83301 -15.832 -8.5 -21.499s-12.834 -8.5 -21.501 -8.5c-8 0 -15 3 -21 9s-9 13.333 -9 22c0 7.33301 3 14 9 20s13 9 21 9c8.66699 0 15.834 -2.83301 21.501 -8.5s8.5 -12.834 8.5 -21.501zM79 765.002
c0 -8.66699 -3 -16 -9 -22s-13.333 -9 -22 -9s-16 3 -22 9s-9 13.333 -9 22c0 8 3 15 9 21s13.333 9 22 9s16 -3 22 -9s9 -13 9 -21z" />
    <glyph glyph-name="eth" unicode="&#xf0;" horiz-adv-x="685" 
d="M339 581c-72.667 0 -135.167 -26.667 -187.5 -80s-78.5 -116.333 -78.5 -189c0 -73.333 26.667 -136.166 80 -188.499s118 -78.5 194 -78.5c74 0 137.833 25.667 191.5 77s80.5 113.666 80.5 186.999c0 78 -27.333 142.667 -82 194c-45.333 52 -111.333 78 -198 78z
M381 722l192 -190.001c60 -61.333 90 -134.666 90 -219.999c0 -86 -30.833 -159.333 -92.5 -220s-136.167 -91 -223.5 -91s-162.166 29.833 -224.499 89.5s-93.5 132.5 -93.5 218.5c0 88.667 31.167 163.5 93.5 224.5s139.166 91.5 230.499 91.5
c33.333 -0.666992 57.333 -4 72 -10l-91 86l-94 -44l-35 34l93 43l-43 40l53 19l39 -37l84 40l35 -34z" />
    <glyph glyph-name="ntilde" unicode="&#xf1;" horiz-adv-x="332" 
d="M237 0v509l-141 84v-593h-49v679l190 -115v103h49v-667h-49zM201 734c-8.66699 0 -21.333 2.66797 -38 8.00098s-29.667 8 -39 8c-6.66699 0 -14 -2 -22 -6c-1.33301 -0.666992 -5.33301 -3.33398 -12 -8.00098l-29 32c18.667 17.333 40.667 26 66 26
c8.66699 0 21.667 -3 39 -9s30.666 -9 39.999 -9c6.66699 0 12.834 1.66699 18.501 5s11.5 8 17.5 14l30 -32c-10.667 -9.33301 -22 -16.5 -34 -21.5s-24.333 -7.5 -37 -7.5z" />
    <glyph glyph-name="ograve" unicode="&#xf2;" horiz-adv-x="723" 
d="M709 338c0 -92.667 -33.5 -172 -100.5 -238s-147.833 -99 -242.5 -99c-95.333 0 -176.833 32.333 -244.5 97s-101.5 143.667 -101.5 237c0 96.667 33.833 178 101.5 244s151.167 99 250.5 99c94 0 173.667 -33.5 239 -100.5s98 -146.833 98 -239.5zM68 339
c0 -80 29.001 -148.333 87.001 -205s127.667 -85 209 -85s151.166 27.833 209.499 83.5s87.5 123.167 87.5 202.5c0 84 -29.333 154 -88 210s-130.667 84 -216 84c-78.667 0 -146.5 -28.833 -203.5 -86.5s-85.5 -125.5 -85.5 -203.5zM331.001 807l64 -92h-51l-64 92h51z" />
    <glyph glyph-name="oacute" unicode="&#xf3;" horiz-adv-x="723" 
d="M382 714h-50l62 93h52zM709 338c0 -92.667 -33.5 -172 -100.5 -238s-147.833 -99 -242.5 -99c-95.333 0 -176.833 32.333 -244.5 97s-101.5 143.667 -101.5 237c0 96.667 33.833 178 101.5 244s151.167 99 250.5 99c94 0 173.667 -33.5 239 -100.5s98 -146.833 98 -239.5
zM68 339c0 -80 29.001 -148.333 87.001 -205s127.667 -85 209 -85s151.166 27.833 209.499 83.5s87.5 123.167 87.5 202.5c0 84 -29.333 154 -88 210s-130.667 84 -216 84c-78.667 0 -146.5 -28.833 -203.5 -86.5s-85.5 -125.5 -85.5 -203.5z" />
    <glyph glyph-name="ocircumflex" unicode="&#xf4;" horiz-adv-x="723" 
d="M362 759l-100 -45l-17 37l117 56l117 -56l-17 -37zM709 338c0 -92.667 -33.5 -172 -100.5 -238s-147.833 -99 -242.5 -99c-95.333 0 -176.833 32.333 -244.5 97s-101.5 143.667 -101.5 237c0 96.667 33.833 178 101.5 244s151.167 99 250.5 99
c94 0 173.667 -33.5 239 -100.5s98 -146.833 98 -239.5zM68 339c0 -80 29.001 -148.333 87.001 -205s127.667 -85 209 -85s151.166 27.833 209.499 83.5s87.5 123.167 87.5 202.5c0 84 -29.333 154 -88 210s-130.667 84 -216 84c-78.667 0 -146.5 -28.833 -203.5 -86.5
s-85.5 -125.5 -85.5 -203.5z" />
    <glyph glyph-name="otilde" unicode="&#xf5;" horiz-adv-x="723" 
d="M397 734c-9.33301 0 -22.332 2.66797 -38.999 8.00098s-29.334 8 -38.001 8c-6.66699 0 -14 -2 -22 -6c-1.33301 -0.666992 -5.33301 -3.33398 -12 -8.00098l-30 32c18.667 17.333 40.667 26 66 26c9.33301 0 19.333 -1.66699 30 -5c28 -8.66699 44.667 -13 50 -13
c6 0 12 1.83301 18 5.5s12 8.16699 18 13.5l29 -32c-10 -9.33301 -20.833 -16.5 -32.5 -21.5s-24.167 -7.5 -37.5 -7.5zM709.001 338.001c0 -92.667 -33.5 -172 -100.5 -238s-147.833 -99 -242.5 -99c-95.333 0 -176.833 32.333 -244.5 97s-101.5 143.667 -101.5 237
c0 96.667 33.833 178 101.5 244s151.167 99 250.5 99c94 0 173.667 -33.5 239 -100.5s98 -146.833 98 -239.5zM68.001 339.001c0 -80 29.001 -148.333 87.001 -205s127.667 -85 209 -85s151.166 27.833 209.499 83.5s87.5 123.167 87.5 202.5c0 84 -29.333 154 -88 210
s-130.667 84 -216 84c-78.667 0 -146.5 -28.833 -203.5 -86.5s-85.5 -125.5 -85.5 -203.5z" />
    <glyph glyph-name="odieresis" unicode="&#xf6;" horiz-adv-x="723" 
d="M704 332c0 -94 -33.333 -174.333 -100 -241s-147 -100 -241 -100s-174.667 32.667 -242 98s-101 145.333 -101 240c0 98 33.667 180.333 101 247s150 100 248 100c93.333 0 172.5 -33.833 237.5 -101.5s97.5 -148.5 97.5 -242.5zM68 333
c0 -80.667 28.667 -149.668 86 -207.001s126.666 -86 207.999 -86c80.667 0 149.834 28.167 207.501 84.5s86.5 124.5 86.5 204.5c0 85.333 -29 156.333 -87 213s-129.333 85 -214 85c-78.667 0 -146.167 -29.167 -202.5 -87.5s-84.5 -127.166 -84.5 -206.499zM451 763.999
c0 -8.66699 -2.83203 -15.832 -8.49902 -21.499s-12.834 -8.5 -21.501 -8.5c-8 0 -15 3 -21 9s-9 13.333 -9 22c0 8 3.16699 14.833 9.5 20.5s13.5 8.5 21.5 8.5s14.833 -2.83301 20.5 -8.5s8.5 -12.834 8.5 -21.501zM334.001 765.001c0 -8.66699 -3 -16 -9 -22
s-13.333 -9 -22 -9s-16 3 -22 9s-9 13.333 -9 22c0 8 3 15 9 21s13.333 9 22 9s16 -3 22 -9s9 -13 9 -21z" />
    <glyph glyph-name="divide" unicode="&#xf7;" horiz-adv-x="456" 
d="M263 482c0 -10 -3.33301 -18.333 -10 -25s-15 -10 -25 -10s-18.333 3.33301 -25 10s-10 15 -10 25s3.33301 18.333 10 25s15 10 25 10s18.333 -3.33301 25 -10s10 -15 10 -25zM263 185c0 -10 -3.33301 -18.333 -10 -25s-15 -10 -25 -10
c-9.33301 0 -17.5 3.16699 -24.5 9.5s-10.5 14.833 -10.5 25.5c0 10 3.33301 18.333 10 25s15 10 25 10s18.333 -3.33301 25 -10s10 -15 10 -25zM401 358v-49h-346v49h346z" />
    <glyph glyph-name="oslash" unicode="&#xf8;" horiz-adv-x="729" 
d="M600 570c32 -31.333 56.334 -67.333 73.001 -108s25 -83 25 -127c0 -90.667 -32.833 -168.667 -98.5 -234s-144.167 -98 -235.5 -98c-36.667 0 -71.834 5.83301 -105.501 17.5s-66.167 28.834 -97.5 51.501l-62 -71l-35 30l63 72c-30.667 29.333 -54.5 64.5 -71.5 105.5
s-25.5 83.5 -25.5 127.5c0 91.333 32.5 169.666 97.5 234.999s143.833 98 236.5 98c38 0 72.5 -5.5 103.5 -16.5s63.833 -28.167 98.5 -51.5l60 70l36 -31zM192.001 108c28.667 -19.333 56.5 -33.834 83.5 -43.501s56.5 -14.5 88.5 -14.5c78.667 0 146 28 202 84
s84 123.333 84 202c0 37.333 -6.83301 72.833 -20.5 106.5s-33.5 63.834 -59.5 90.501zM364.001 621.999c-78.667 0 -146 -27.668 -202 -83.001s-84 -122.666 -84 -201.999c0 -39.333 6.5 -74.333 19.5 -105s33.167 -62 60.5 -94l376 427c-49.333 38 -106 57 -170 57z" />
    <glyph glyph-name="ugrave" unicode="&#xf9;" horiz-adv-x="323" 
d="M276 120c0 -38 -9 -68.332 -27 -90.999c-20 -25.333 -48.667 -38 -86 -38s-66 12.167 -86 36.5s-30 55.833 -30 94.5v545h49v-543c0 -24.667 4.83301 -44.834 14.5 -60.501s26.5 -23.5 50.5 -23.5s41 7.5 51 22.5s15 35.167 15 60.5v544h49v-547zM129 807.001l63 -93h-51
l-63 93h51z" />
    <glyph glyph-name="uacute" unicode="&#xfa;" horiz-adv-x="323" 
d="M276 120c0 -38 -9 -68.332 -27 -90.999c-20 -25.333 -48.667 -38 -86 -38s-66 12.167 -86 36.5s-30 55.833 -30 94.5v545h49v-543c0 -24.667 4.83301 -44.834 14.5 -60.501s26.5 -23.5 50.5 -23.5s41 7.5 51 22.5s15 35.167 15 60.5v544h49v-547zM182 714.001h-51l63 93
h51z" />
    <glyph glyph-name="ucircumflex" unicode="&#xfb;" horiz-adv-x="323" 
d="M276 120c0 -38 -9 -68.332 -27 -90.999c-20 -25.333 -48.667 -38 -86 -38s-66 12.167 -86 36.5s-30 55.833 -30 94.5v545h49v-543c0 -24.667 4.83301 -44.834 14.5 -60.501s26.5 -23.5 50.5 -23.5s41 7.5 51 22.5s15 35.167 15 60.5v544h49v-547zM161 759.001l-99 -45
l-17 37l116 56l118 -56l-18 -37z" />
    <glyph glyph-name="udieresis" unicode="&#xfc;" horiz-adv-x="323" 
d="M276 120c0 -38 -9 -68.332 -27 -90.999c-20 -25.333 -48.667 -38 -86 -38s-66 12.167 -86 36.5s-30 55.833 -30 94.5v545h49v-543c0 -24.667 4.83301 -44.834 14.5 -60.501s26.5 -23.5 50.5 -23.5s41 7.5 51 22.5s15 35.167 15 60.5v544h49v-547zM251 764.001
c0 -8.66699 -2.83301 -15.832 -8.5 -21.499s-12.834 -8.5 -21.501 -8.5c-8 0 -15 3 -21 9s-9 13.333 -9 22c0 7.33301 3 14 9 20s13 9 21 9c8.66699 0 15.834 -2.83301 21.501 -8.5s8.5 -12.834 8.5 -21.501zM133 765.003c0 -20.667 -10 -31 -30 -31c-8.66699 0 -16 3 -22 9
s-9 13.333 -9 22c0 8 3 15 9 21s13.333 9 22 9c8 0 15 -3 21 -9s9 -13 9 -21z" />
    <glyph glyph-name="yacute" unicode="&#xfd;" horiz-adv-x="336" 
d="M145 0v459l-138 208h59l104 -159l100 159h59l-136 -208v-459h-48zM188 714h-50l62 93h52z" />
    <glyph glyph-name="thorn" unicode="&#xfe;" horiz-adv-x="375" 
d="M47 807h49v-189c68.667 0 128.334 -21.333 179.001 -64c54 -46 81 -103 81 -171s-27 -124.333 -81 -169c-48.667 -40 -108.334 -63.333 -179.001 -70v-144h-49v807zM307 383c0 54.667 -22.001 99.333 -66.001 134c-39.333 31.333 -87.666 49.333 -144.999 54v-377
c56 0 104.333 17 145 51c44 36.667 66 82.667 66 138z" />
    <glyph glyph-name="ydieresis" unicode="&#xff;" horiz-adv-x="336" 
d="M145 0v459l-138 208h59l104 -159l100 159h59l-136 -208v-459h-48zM258 764c0 -8 -3.00098 -14.999 -9.00098 -20.999s-13.333 -9 -22 -9c-8 0 -15 3 -21 9s-9 13.333 -9 22c0 8 3.16699 14.833 9.5 20.5s13.5 8.5 21.5 8.5c8.66699 0 15.834 -2.83301 21.501 -8.5
s8.5 -12.834 8.5 -21.501zM139.999 765.001c0 -8.66699 -3 -16 -9 -22s-13.333 -9 -22 -9s-16 3 -22 9s-9 13.333 -9 22c0 8 3 15 9 21s13.333 9 22 9s16 -3 22 -9s9 -13 9 -21z" />
    <glyph glyph-name="OE" unicode="&#x152;" horiz-adv-x="858" 
d="M659 0v156c-39.333 -54.667 -81 -95 -125 -121c-49.333 -29.333 -105.666 -44 -168.999 -44c-94.667 0 -175.334 33.333 -242.001 100s-100 147.334 -100 242.001c0 93.333 33.667 173.666 101 240.999s148 101 242 101c58.667 0 114.167 -14.5 166.5 -43.5
s94.5 -68.833 126.5 -119.5v155h173v-49h-124v-116h118l16 -48h-134v-405h124v-49h-173zM72 333c0 -81.333 28.499 -150.5 85.499 -207.5s126.5 -85.5 208.5 -85.5c80.667 0 149.667 28.333 207 85s86 125.667 86 207c0 84 -28.333 154 -85 210s-127 84 -211 84
c-79.333 0 -147.666 -29 -204.999 -87s-86 -126.667 -86 -206z" />
    <glyph glyph-name="oe" unicode="&#x153;" horiz-adv-x="895" 
d="M677 0v156c-39.333 -54.667 -81 -95 -125 -121c-49.333 -29.333 -105.666 -44 -168.999 -44c-94.667 0 -175.334 33.333 -242.001 100s-100 147.334 -100 242.001c0 93.333 33.667 173.666 101 240.999s148 101 242 101c58.667 0 114.167 -14.5 166.5 -43.5
s94.5 -68.833 126.5 -119.5v155h173v-49h-124v-116h118l16 -48h-134v-405h124v-49h-173zM90 333c0 -81.333 28.499 -150.5 85.499 -207.5s126.5 -85.5 208.5 -85.5c80.667 0 149.667 28.333 207 85s86 125.667 86 207c0 84 -28.333 154 -85 210s-127 84 -211 84
c-79.333 0 -147.666 -29 -204.999 -87s-86 -126.667 -86 -206z" />
    <glyph glyph-name="Scaron" unicode="&#x160;" horiz-adv-x="288" 
d="M33 49c57.333 0 95.668 3.33398 115.001 10.001c39.333 13.333 59 43.333 59 90c0 33.333 -12.833 74 -38.5 122l-75.5 139c-27.333 53.333 -41 97 -41 131c0 42 13.167 73.5 39.5 94.5s61.166 31.5 104.499 31.5h36v-48c-42 0 -70.667 -2.66699 -86 -8
c-30 -10.667 -45 -33 -45 -67c0 -34.667 13.333 -77.334 40 -128.001l74 -132c27.333 -53.333 41 -98.333 41 -135c0 -48 -16.667 -85.333 -50 -112c-30.667 -24.667 -70.667 -37 -120 -37h-53v49zM144.002 763.001l100 44l18 -37l-118 -56l-116 56l17 37z" />
    <glyph glyph-name="scaron" unicode="&#x161;" horiz-adv-x="288" 
d="M30 49c57.333 0 95.668 3.33398 115.001 10.001c39.333 13.333 59 43.333 59 90c0 33.333 -12.833 74 -38.5 122l-75.5 139c-27.333 53.333 -41 97 -41 131c0 42 13.167 73.5 39.5 94.5s61.166 31.5 104.499 31.5h36v-48c-42 0 -70.667 -2.66699 -86 -8
c-30 -10.667 -45 -33 -45 -67c0 -34.667 13.333 -77.334 40 -128.001l74 -132c27.333 -53.333 41 -98.333 41 -135c0 -48 -16.667 -85.333 -50 -112c-30.667 -24.667 -70.667 -37 -120 -37h-53v49zM141.002 763.001l100 44l18 -37l-118 -56l-116 56l17 37z" />
    <glyph glyph-name="Ydieresis" unicode="&#x178;" horiz-adv-x="336" 
d="M145 0v459l-138 208h59l104 -159l100 159h59l-136 -208v-459h-48zM258 764c0 -8 -3.00098 -14.999 -9.00098 -20.999s-13.333 -9 -22 -9c-8 0 -15 3 -21 9s-9 13.333 -9 22c0 8 3.16699 14.833 9.5 20.5s13.5 8.5 21.5 8.5c8.66699 0 15.834 -2.83301 21.501 -8.5
s8.5 -12.834 8.5 -21.501zM139.999 765.001c0 -8.66699 -3 -16 -9 -22s-13.333 -9 -22 -9s-16 3 -22 9s-9 13.333 -9 22c0 8 3 15 9 21s13.333 9 22 9s16 -3 22 -9s9 -13 9 -21z" />
    <glyph glyph-name="Zcaron" unicode="&#x17d;" horiz-adv-x="267" 
d="M17 0l159 618h-147v49h211l-159 -618h166v-49h-230zM133 763l100 44l17 -37l-117 -56l-117 56l17 37z" />
    <glyph glyph-name="zcaron" unicode="&#x17e;" horiz-adv-x="267" 
d="M17 0l159 618h-147v49h211l-159 -618h166v-49h-230zM133 763l100 44l17 -37l-117 -56l-117 56l17 37z" />
    <glyph glyph-name="florin" unicode="&#x192;" 
d="M78 -52c22.667 0 39.167 5.16895 49.5 15.502s19.5 37.833 27.5 82.5l74 416h-62l8 49h62c17.333 102 26.333 153.333 27 154c16.667 39.333 56.667 59 120 59l-8 -47c-44.667 -4.66699 -71 -31.334 -79 -80.001c-4 -28.667 -7.66699 -57.334 -11 -86.001h61l-8 -49h-61
l-78 -442c-7.33301 -42 -16 -70.333 -26 -85c-15.333 -23.333 -41.333 -35 -78 -35l-26 1z" />
    <glyph glyph-name="circumflex" unicode="&#x2c6;" horiz-adv-x="367" 
d="M181 758l-100 -44l-17 37l117 56l117 -56l-17 -37z" />
    <glyph glyph-name="tilde" unicode="&#x2dc;" horiz-adv-x="306" 
d="M188 733c-8.66699 0 -18.334 1.66699 -29.001 5c-26 8 -42 12 -48 12s-12.333 -1.83301 -19 -5.5s-11.667 -6.5 -15 -8.5l-29 32c18.667 17.333 40.334 26 65.001 26c10 0 23.833 -3.16699 41.5 -9.5s30.5 -9.5 38.5 -9.5c6 0 12 1.83301 18 5.5s12 8.16699 18 13.5
l29 -32c-10 -9.33301 -20.833 -16.5 -32.5 -21.5s-24.167 -7.5 -37.5 -7.5z" />
    <glyph glyph-name="endash" unicode="&#x2013;" 
d="M86 294v40h283v-40h-283z" />
    <glyph glyph-name="emdash" unicode="&#x2014;" horiz-adv-x="556" 
d="M26 294v40h500v-40h-500z" />
    <glyph glyph-name="quoteleft" unicode="&#x2018;" horiz-adv-x="174" 
d="M121 664l-27 -45.001c15.333 -5.33301 23 -15.333 23 -30c0 -21.333 -11 -32 -33 -32c-8 0 -15.167 2.83301 -21.5 8.5s-9.5 12.5 -9.5 20.5c0 10.667 6.66699 26.667 20 48c16 22.667 25.333 36.334 28 41.001z" />
    <glyph glyph-name="quoteright" unicode="&#x2019;" horiz-adv-x="174" 
d="M53 567l27 45.001c-15.333 5.33301 -23 15.666 -23 30.999c0 21.333 11 32 33 32c8 0 15.167 -2.83301 21.5 -8.5s9.5 -12.5 9.5 -20.5c0 -10 -7 -26.333 -21 -49c-7.33301 -12 -16.333 -25.333 -27 -40z" />
    <glyph glyph-name="quotesinglbase" unicode="&#x201a;" horiz-adv-x="191" 
d="M57 -46l29.001 49c-16 6 -24 17.333 -24 34c0 11.333 3.16699 20.166 9.5 26.499s15.166 9.5 26.499 9.5c9.33301 0 17.333 -3 24 -9s10 -13.667 10 -23c0 -11.333 -7.66699 -29.666 -23 -54.999l-30 -45z" />
    <glyph glyph-name="quotedblleft" unicode="&#x201c;" horiz-adv-x="254" 
d="M121 664l-27 -45.001c15.333 -5.33301 23 -15.333 23 -30c0 -21.333 -11 -32 -33 -32c-8 0 -15.167 2.83301 -21.5 8.5s-9.5 12.5 -9.5 20.5c0 10.667 6.66699 26.667 20 48c16 22.667 25.333 36.334 28 41.001zM201 663.999l-27 -45.001
c15.333 -5.33301 23 -15.333 23 -30c0 -21.333 -10.667 -32 -32 -32c-8.66699 0 -16.167 2.83301 -22.5 8.5s-9.5 12.5 -9.5 20.5c0 10 6.66699 26 20 48c16 22.667 25.333 36.334 28 41.001z" />
    <glyph glyph-name="quotedblright" unicode="&#x201d;" horiz-adv-x="254" 
d="M53 567l27 45.001c-15.333 5.33301 -23 15.666 -23 30.999c0 21.333 11 32 33 32c8 0 15.167 -2.83301 21.5 -8.5s9.5 -12.5 9.5 -20.5c0 -10 -7 -26.333 -21 -49c-7.33301 -12 -16.333 -25.333 -27 -40zM133 567.001l27 45.001c-15.333 5.33301 -23 15.666 -23 30.999
c0 21.333 11 32 33 32c8 0 15.167 -2.83301 21.5 -8.5s9.5 -12.5 9.5 -20.5c0 -10 -7 -26.333 -21 -49c-7.33301 -12 -16.333 -25.333 -27 -40z" />
    <glyph glyph-name="quotedblbase" unicode="&#x201e;" horiz-adv-x="254" 
d="M53 -42l27 45c-15.333 5.33301 -23 15.333 -23 30c0 22 11 33 33 33c8 0 15.167 -2.83301 21.5 -8.5s9.5 -12.5 9.5 -20.5c0 -12 -9.33301 -32.333 -28 -61l-20 -29zM133 -42l27 45c-15.333 5.33301 -23 15.333 -23 30c0 22 11 33 33 33c8.66699 0 16 -2.66699 22 -8
s9 -12.333 9 -21c0 -12 -9.33301 -32.333 -28 -61l-20 -29z" />
    <glyph glyph-name="dagger" unicode="&#x2020;" horiz-adv-x="418" 
d="M234 727v-149h123v-49h-123v-602h-49v602h-122v49h122v149h49z" />
    <glyph glyph-name="daggerdbl" unicode="&#x2021;" horiz-adv-x="428" 
d="M232 727v-149h123v-49h-123v-404h123v-49h-123v-149h-49v149h-122v49h122v404h-122v49h122v149h49z" />
    <glyph glyph-name="periodcentered" unicode="&#x2022;" horiz-adv-x="428" 
d="M348 339c0 -38.667 -13.5 -71.5 -40.5 -98.5s-59.833 -40.5 -98.5 -40.5c-38 0 -70.5 13.5 -97.5 40.5s-40.5 59.5 -40.5 97.5c0 40 13.333 73.333 40 100s60 40 100 40c38 0 70.333 -13.667 97 -41s40 -60 40 -98z" />
    <glyph glyph-name="ellipsis" unicode="&#x2026;" horiz-adv-x="574" 
d="M131 26c0 -10 -3.33301 -18.333 -10 -25s-15 -10 -25 -10s-18.5 3.5 -25.5 10.5s-10.5 15.5 -10.5 25.5s3.66699 18.333 11 25s16 10 26 10c22.667 0 34 -12 34 -36zM322 26c0 -9.33301 -3.33301 -17.5 -10 -24.5s-15 -10.5 -25 -10.5s-18.5 3.5 -25.5 10.5
s-10.5 15.5 -10.5 25.5s3.66699 18.333 11 25s16.333 10 27 10c22 0 33 -12 33 -36zM514 26c0 -10 -3.33301 -18.333 -10 -25s-15 -10 -25 -10s-18.5 3.5 -25.5 10.5s-10.5 15.5 -10.5 25.5c0 10.667 3.5 19.167 10.5 25.5s15.833 9.5 26.5 9.5c22.667 0 34 -12 34 -36z" />
    <glyph glyph-name="perthousand" unicode="&#x2030;" horiz-adv-x="982" 
d="M315 487c0 -49.333 -13.5 -91.333 -40.5 -126s-60.167 -52 -99.5 -52c-38 0 -70.833 17.167 -98.5 51.5s-41.5 75.833 -41.5 124.5c0 51.333 13.833 94.333 41.5 129s61.5 52 101.5 52c38 0 70.333 -17.667 97 -53s40 -77.333 40 -126zM74 487
c0 -36.667 9.83301 -67.667 29.5 -93s43.167 -38 70.5 -38c29.333 0 54 12.5 74 37.5s30 55.833 30 92.5c0 38 -10 69.667 -30 95s-45.333 38 -76 38c-27.333 0 -50.5 -13 -69.5 -39s-28.5 -57 -28.5 -93zM173 8l274 652h42l-275 -652h-41zM628 179
c0 -48.667 -13.5 -90.499 -40.5 -125.499s-59.833 -52.5 -98.5 -52.5s-71.667 17 -99 51s-41 75.667 -41 125c0 52 13.667 95.333 41 130s61 52 101 52c38 0 70.333 -17.833 97 -53.5s40 -77.834 40 -126.501zM385 180.001c0 -36.667 9.99902 -67.833 29.999 -93.5
s44.667 -38.5 74 -38.5c28 0 52 12.833 72 38.5s30 56.167 30 91.5c0 38 -9.83301 69.667 -29.5 95s-44.5 38 -74.5 38c-29.333 0 -53.666 -13 -72.999 -39s-29 -56.667 -29 -92zM942.999 179.002c0 -48 -13.833 -89.667 -41.5 -125s-60.167 -53 -97.5 -53
c-38.667 0 -71.834 17.333 -99.501 52s-41.5 76.334 -41.5 125.001c0 51.333 13.833 94.333 41.5 129s61.834 52 102.501 52c37.333 0 69.333 -17.833 96 -53.5s40 -77.834 40 -126.501zM700.999 180.002c0 -36.667 9.83301 -67.833 29.5 -93.5s44.167 -38.5 73.5 -38.5
c26.667 0 50 12.833 70 38.5s30 56.167 30 91.5c0 38 -9.83301 69.667 -29.5 95s-44.167 38 -73.5 38c-28 0 -51.667 -12.833 -71 -38.5s-29 -56.5 -29 -92.5z" />
    <glyph glyph-name="guilsinglleft" unicode="&#x2039;" horiz-adv-x="219" 
d="M91 331l88 -263h-47l-88 263l88 238h47z" />
    <glyph glyph-name="guilsinglright" unicode="&#x203a;" horiz-adv-x="219" 
d="M132 306l-88 263h47l88 -263l-88 -238h-47z" />
    <glyph glyph-name="Euro" unicode="&#x20ac;" horiz-adv-x="454" 
d="M156 240c13.333 -41.333 36.333 -78.001 69 -110.001c54.667 -54.667 122 -82 202 -82v-48c-92 0 -170.333 32 -235 96c-42 41.333 -71.333 89 -88 143l-74 1v48h67c-1.33301 14.667 -2 29.667 -2 45c0 14.667 1 29.334 3 44.001h-68v49h77
c14 55.333 41.667 103.666 83 144.999c64 64 143 96 237 96v-48c-78.667 0 -145.667 -27.333 -201 -82c-32.667 -32.667 -55.667 -69.667 -69 -111h249v-48h-261c-1.33301 -14.667 -2 -29.667 -2 -45s0.333008 -29.666 1 -42.999l237 -2v-48h-225z" />
    <glyph glyph-name="trademark" unicode="&#x2122;" horiz-adv-x="472" 
d="M98 287v337h-45v36h126v-36h-44v-337h-37zM387 287l-44 268l-42 -96l-43 98l-44 -270h-38l66 390l59 -130l58 131l66 -391h-38z" />
  </font>
</defs>
</svg>
